blackwide.ufo
<glyph name="comma" format="1">
  <advance width="402"/>
  <unicode hex="002C"/>
  <outline>
    <contour>
      <point x="220" y="-99"/>
      <point x="30" y="-99"/>
      <point x="220" y="-99" type="curve"/>
      <point x="268" y="-37"/>
      <point x="324" y="20"/>
      <point x="372" y="82" type="curve"/>
      <point x="153" y="82"/>
      <point x="372" y="82"/>
      <point x="153" y="82" type="curve"/>
      <point x="109" y="24"/>
      <point x="74" y="-41"/>
      <point x="30" y="-99" type="curve"/>
    </contour>
  </outline>
</glyph>
<glyph name="A" format="1">
  <advance width="973"/>
  <unicode hex="0041"/>
  <outline>
    <contour>
      <point x="133" y="117"/>
      <point x="133" y="0"/>
      <point x="133" y="117" type="curve"/>
      <point x="133" y="117"/>
      <point x="133" y="117"/>
      <point x="133" y="117" type="curve"/>
      <point x="133" y="0"/>
      <point x="133" y="117"/>
      <point x="133" y="0" type="curve"/>
      <point x="133" y="0"/>
      <point x="133" y="0"/>
      <point x="133" y="0" type="curve"/>
    </contour>
    <contour>
      <point x="133" y="0"/>
      <point x="133" y="117"/>
      <point x="133" y="0" type="curve"/>
      <point x="210" y="0"/>
      <point x="-88" y="0"/>
      <point x="143" y="0" type="curve"/>
      <point x="143" y="117"/>
      <point x="143" y="0"/>
      <point x="143" y="117" type="curve"/>
      <point x="-88" y="117"/>
      <point x="364" y="117"/>
      <point x="133" y="117" type="curve"/>
    </contour>
    <contour>
      <point x="844" y="0"/>
      <point x="844" y="117"/>
      <point x="844" y="0" type="curve"/>
      <point x="844" y="0"/>
      <point x="844" y="0"/>
      <point x="844" y="0" type="curve"/>
      <point x="844" y="117"/>
      <point x="844" y="0"/>
      <point x="844" y="117" type="curve"/>
      <point x="844" y="117"/>
      <point x="844" y="117"/>
      <point x="844" y="117" type="curve"/>
    </contour>
    <contour>
      <point x="844" y="117"/>
      <point x="844" y="0"/>
      <point x="844" y="117" type="curve"/>
      <point x="614" y="117"/>
      <point x="1062" y="117"/>
      <point x="832" y="117" type="curve"/>
      <point x="832" y="0"/>
      <point x="832" y="117"/>
      <point x="832" y="0" type="curve"/>
      <point x="909" y="0"/>
      <point x="768" y="0"/>
      <point x="844" y="0" type="curve"/>
    </contour>
    <contour>
      <point x="706" y="327"/>
      <point x="757" y="204"/>
      <point x="706" y="327" type="curve"/>
      <point x="570" y="327"/>
      <point x="434" y="327"/>
      <point x="298" y="327" type="curve"/>
      <point x="232" y="204"/>
      <point x="298" y="327"/>
      <point x="232" y="204" type="curve"/>
      <point x="407" y="204"/>
      <point x="582" y="204"/>
      <point x="757" y="204" type="curve"/>
    </contour>
    <contour>
      <point x="943" y="0"/>
      <point x="775" y="0"/>
      <point x="943" y="0" type="curve"/>
      <point x="826" y="242"/>
      <point x="701" y="480"/>
      <point x="583" y="722" type="curve"/>
      <point x="437" y="722"/>
      <point x="583" y="722"/>
      <point x="437" y="722" type="curve"/>
      <point x="552" y="483"/>
      <point x="660" y="239"/>
      <point x="775" y="0" type="curve"/>
    </contour>
    <contour>
      <point x="205" y="0"/>
      <point x="30" y="0"/>
      <point x="205" y="0" type="curve"/>
      <point x="334" y="239"/>
      <point x="452" y="483"/>
      <point x="581" y="722" type="curve"/>
      <point x="435" y="722"/>
      <point x="581" y="722"/>
      <point x="435" y="722" type="curve"/>
      <point x="303" y="480"/>
      <point x="162" y="242"/>
      <point x="30" y="0" type="curve"/>
    </contour>
  </outline>
</glyph>
<glyph name="B" format="1">
  <advance width="742"/>
  <unicode hex="0042"/>
  <outline>
    <contour>
      <point x="113" y="722"/>
      <point x="113" y="605"/>
      <point x="113" y="722" type="curve"/>
      <point x="113" y="722"/>
      <point x="113" y="722"/>
      <point x="113" y="722" type="curve"/>
      <point x="113" y="605"/>
      <point x="113" y="722"/>
      <point x="113" y="605" type="curve"/>
      <point x="113" y="605"/>
      <point x="113" y="605"/>
      <point x="113" y="605" type="curve"/>
    </contour>
    <contour>
      <point x="112" y="117"/>
      <point x="112" y="0"/>
      <point x="112" y="117" type="curve"/>
      <point x="112" y="117"/>
      <point x="112" y="117"/>
      <point x="112" y="117" type="curve"/>
      <point x="112" y="0"/>
      <point x="112" y="117"/>
      <point x="112" y="0" type="curve"/>
      <point x="112" y="0"/>
      <point x="112" y="0"/>
      <point x="112" y="0" type="curve"/>
    </contour>
    <contour>
      <point x="99" y="605"/>
      <point x="99" y="722"/>
      <point x="99" y="605" type="curve"/>
      <point x="193" y="605"/>
      <point x="286" y="605"/>
      <point x="380" y="605" type="curve"/>
      <point x="441" y="605"/>
      <point x="491" y="585"/>
      <point x="491" y="528" type="curve"/>
      <point x="491" y="471"/>
      <point x="423" y="462"/>
      <point x="358" y="462" type="curve"/>
      <point x="272" y="462"/>
      <point x="185" y="462"/>
      <point x="99" y="462" type="curve"/>
      <point x="99" y="345"/>
      <point x="99" y="462"/>
      <point x="99" y="345" type="curve"/>
      <point x="159" y="345"/>
      <point x="218" y="345"/>
      <point x="278" y="345" type="curve"/>
      <point x="462" y="345"/>
      <point x="651" y="367"/>
      <point x="651" y="528" type="curve"/>
      <point x="651" y="668"/>
      <point x="535" y="722"/>
      <point x="380" y="722" type="curve"/>
      <point x="286" y="722"/>
      <point x="193" y="722"/>
      <point x="99" y="722" type="curve"/>
    </contour>
    <contour>
      <point x="198" y="0"/>
      <point x="30" y="0"/>
      <point x="198" y="0" type="curve"/>
      <point x="198" y="241"/>
      <point x="198" y="481"/>
      <point x="198" y="722" type="curve"/>
      <point x="30" y="722"/>
      <point x="198" y="722"/>
      <point x="30" y="722" type="curve"/>
      <point x="30" y="481"/>
      <point x="30" y="241"/>
      <point x="30" y="0" type="curve"/>
    </contour>
    <contour>
      <point x="99" y="345"/>
      <point x="99" y="462"/>
      <point x="99" y="345" type="curve"/>
      <point x="185" y="345"/>
      <point x="272" y="345"/>
      <point x="358" y="345" type="curve"/>
      <point x="462" y="345"/>
      <point x="552" y="320"/>
      <point x="552" y="226" type="curve"/>
      <point x="552" y="140"/>
      <point x="475" y="117"/>
      <point x="377" y="117" type="curve"/>
      <point x="284" y="117"/>
      <point x="192" y="117"/>
      <point x="99" y="117" type="curve"/>
      <point x="99" y="0"/>
      <point x="99" y="117"/>
      <point x="99" y="0" type="curve"/>
      <point x="192" y="0"/>
      <point x="284" y="0"/>
      <point x="377" y="0" type="curve"/>
      <point x="569" y="0"/>
      <point x="712" y="57"/>
      <point x="712" y="226" type="curve"/>
      <point x="712" y="429"/>
      <point x="506" y="462"/>
      <point x="278" y="462" type="curve"/>
      <point x="218" y="462"/>
      <point x="159" y="462"/>
      <point x="99" y="462" type="curve"/>
    </contour>
  </outline>
</glyph>
<glyph name="D" format="1">
  <advance width="877"/>
  <unicode hex="0044"/>
  <outline>
    <contour>
      <point x="113" y="117"/>
      <point x="113" y="0"/>
      <point x="113" y="117" type="curve"/>
      <point x="113" y="117"/>
      <point x="113" y="117"/>
      <point x="113" y="117" type="curve"/>
      <point x="113" y="0"/>
      <point x="113" y="117"/>
      <point x="113" y="0" type="curve"/>
      <point x="113" y="0"/>
      <point x="113" y="0"/>
      <point x="113" y="0" type="curve"/>
    </contour>
    <contour>
      <point x="113" y="722"/>
      <point x="113" y="605"/>
      <point x="113" y="722" type="curve"/>
      <point x="113" y="722"/>
      <point x="113" y="722"/>
      <point x="113" y="722" type="curve"/>
      <point x="113" y="605"/>
      <point x="113" y="722"/>
      <point x="113" y="605" type="curve"/>
      <point x="113" y="605"/>
      <point x="113" y="605"/>
      <point x="113" y="605" type="curve"/>
    </contour>
    <contour>
      <point x="30" y="722"/>
      <point x="191" y="722"/>
      <point x="30" y="722" type="curve"/>
      <point x="30" y="481"/>
      <point x="30" y="241"/>
      <point x="30" y="0" type="curve"/>
      <point x="191" y="0"/>
      <point x="30" y="0"/>
      <point x="191" y="0" type="curve"/>
      <point x="191" y="241"/>
      <point x="191" y="481"/>
      <point x="191" y="722" type="curve"/>
    </contour>
    <contour>
      <point x="113" y="0"/>
      <point x="113" y="117"/>
      <point x="113" y="0" type="curve"/>
      <point x="198" y="0"/>
      <point x="282" y="0"/>
      <point x="367" y="0" type="curve"/>
      <point x="655" y="0"/>
      <point x="847" y="92"/>
      <point x="847" y="354" type="curve"/>
      <point x="847" y="624"/>
      <point x="654" y="722"/>
      <point x="359" y="722" type="curve"/>
      <point x="277" y="722"/>
      <point x="195" y="722"/>
      <point x="113" y="722" type="curve"/>
      <point x="113" y="605"/>
      <point x="113" y="722"/>
      <point x="113" y="605" type="curve"/>
      <point x="192" y="605"/>
      <point x="272" y="605"/>
      <point x="352" y="605" type="curve"/>
      <point x="555" y="605"/>
      <point x="687" y="534"/>
      <point x="687" y="348" type="curve"/>
      <point x="687" y="179"/>
      <point x="566" y="117"/>
      <point x="382" y="117" type="curve"/>
      <point x="292" y="117"/>
      <point x="202" y="117"/>
      <point x="113" y="117" type="curve"/>
    </contour>
  </outline>
</glyph>
<glyph name="E" format="1">
  <advance width="698"/>
  <unicode hex="0045"/>
  <outline>
    <contour>
      <point x="419" y="372"/>
      <point x="542" y="372"/>
      <point x="419" y="372" type="curve"/>
      <point x="419" y="372"/>
      <point x="419" y="372"/>
      <point x="419" y="372" type="curve"/>
      <point x="542" y="372"/>
      <point x="419" y="372"/>
      <point x="542" y="372" type="curve"/>
      <point x="542" y="372"/>
      <point x="542" y="372"/>
      <point x="542" y="372" type="curve"/>
    </contour>
    <contour>
      <point x="542" y="372"/>
      <point x="419" y="372"/>
      <point x="542" y="372" type="curve"/>
      <point x="542" y="372"/>
      <point x="542" y="372"/>
      <point x="542" y="372" type="curve"/>
      <point x="419" y="372"/>
      <point x="542" y="372"/>
      <point x="419" y="372" type="curve"/>
      <point x="419" y="372"/>
      <point x="419" y="372"/>
      <point x="419" y="372" type="curve"/>
    </contour>
    <contour>
      <point x="668" y="58"/>
      <point x="545" y="58"/>
      <point x="668" y="58" type="curve"/>
      <point x="668" y="58"/>
      <point x="668" y="58"/>
      <point x="668" y="58" type="curve"/>
      <point x="545" y="58"/>
      <point x="668" y="58"/>
      <point x="545" y="58" type="curve"/>
      <point x="545" y="58"/>
      <point x="545" y="58"/>
      <point x="545" y="58" type="curve"/>
    </contour>
    <contour>
      <point x="501" y="664"/>
      <point x="624" y="664"/>
      <point x="501" y="664" type="curve"/>
      <point x="501" y="664"/>
      <point x="501" y="664"/>
      <point x="501" y="664" type="curve"/>
      <point x="624" y="664"/>
      <point x="501" y="664"/>
      <point x="624" y="664" type="curve"/>
      <point x="624" y="664"/>
      <point x="624" y="664"/>
      <point x="624" y="664" type="curve"/>
    </contour>
    <contour>
      <point x="112" y="117"/>
      <point x="112" y="0"/>
      <point x="112" y="117" type="curve"/>
      <point x="112" y="117"/>
      <point x="112" y="117"/>
      <point x="112" y="117" type="curve"/>
      <point x="112" y="0"/>
      <point x="112" y="117"/>
      <point x="112" y="0" type="curve"/>
      <point x="112" y="0"/>
      <point x="112" y="0"/>
      <point x="112" y="0" type="curve"/>
    </contour>
    <contour>
      <point x="112" y="722"/>
      <point x="112" y="605"/>
      <point x="112" y="722" type="curve"/>
      <point x="112" y="722"/>
      <point x="112" y="722"/>
      <point x="112" y="722" type="curve"/>
      <point x="112" y="605"/>
      <point x="112" y="722"/>
      <point x="112" y="605" type="curve"/>
      <point x="112" y="605"/>
      <point x="112" y="605"/>
      <point x="112" y="605" type="curve"/>
    </contour>
    <contour>
      <point x="116" y="314"/>
      <point x="116" y="431"/>
      <point x="116" y="314" type="curve"/>
      <point x="258" y="314"/>
      <point x="400" y="314"/>
      <point x="542" y="314" type="curve"/>
      <point x="542" y="431"/>
      <point x="542" y="314"/>
      <point x="542" y="431" type="curve"/>
      <point x="400" y="431"/>
      <point x="258" y="431"/>
      <point x="116" y="431" type="curve"/>
    </contour>
    <contour>
      <point x="96" y="605"/>
      <point x="96" y="722"/>
      <point x="96" y="605" type="curve"/>
      <point x="272" y="605"/>
      <point x="448" y="605"/>
      <point x="624" y="605" type="curve"/>
      <point x="624" y="722"/>
      <point x="624" y="605"/>
      <point x="624" y="722" type="curve"/>
      <point x="448" y="722"/>
      <point x="272" y="722"/>
      <point x="96" y="722" type="curve"/>
    </contour>
    <contour>
      <point x="191" y="0"/>
      <point x="30" y="0"/>
      <point x="191" y="0" type="curve"/>
      <point x="191" y="0"/>
      <point x="191" y="722"/>
      <point x="191" y="722" type="curve"/>
      <point x="30" y="722"/>
      <point x="191" y="722"/>
      <point x="30" y="722" type="curve"/>
      <point x="30" y="481"/>
      <point x="30" y="241"/>
      <point x="30" y="0" type="curve"/>
    </contour>
    <contour>
      <point x="96" y="0"/>
      <point x="96" y="117"/>
      <point x="96" y="0" type="curve"/>
      <point x="287" y="0"/>
      <point x="477" y="0"/>
      <point x="668" y="0" type="curve"/>
      <point x="668" y="117"/>
      <point x="668" y="0"/>
      <point x="668" y="117" type="curve"/>
      <point x="477" y="117"/>
      <point x="287" y="117"/>
      <point x="96" y="117" type="curve"/>
    </contour>
  </outline>
</glyph>
<glyph name="K" format="1">
  <advance width="869"/>
  <unicode hex="004B"/>
  <outline>
    <contour>
      <point x="679" y="117"/>
      <point x="679" y="0"/>
      <point x="679" y="117" type="curve"/>
      <point x="676" y="117"/>
      <point x="682" y="117"/>
      <point x="679" y="117" type="curve"/>
      <point x="679" y="0"/>
      <point x="679" y="117"/>
      <point x="679" y="0" type="curve"/>
      <point x="677" y="0"/>
      <point x="676" y="0"/>
      <point x="679" y="0" type="curve"/>
    </contour>
    <contour>
      <point x="650" y="722"/>
      <point x="650" y="605"/>
      <point x="650" y="722" type="curve"/>
      <point x="650" y="722"/>
      <point x="650" y="722"/>
      <point x="650" y="722" type="curve"/>
      <point x="650" y="605"/>
      <point x="650" y="722"/>
      <point x="650" y="605" type="curve"/>
      <point x="650" y="605"/>
      <point x="650" y="605"/>
      <point x="650" y="605" type="curve"/>
    </contour>
    <contour>
      <point x="679" y="0"/>
      <point x="679" y="117"/>
      <point x="679" y="0" type="curve"/>
      <point x="679" y="0"/>
      <point x="679" y="0"/>
      <point x="679" y="0" type="curve"/>
      <point x="679" y="117"/>
      <point x="679" y="0"/>
      <point x="679" y="117" type="curve"/>
      <point x="679" y="117"/>
      <point x="679" y="117"/>
      <point x="679" y="117" type="curve"/>
    </contour>
    <contour>
      <point x="650" y="605"/>
      <point x="650" y="722"/>
      <point x="650" y="605" type="curve"/>
      <point x="650" y="605"/>
      <point x="650" y="605"/>
      <point x="650" y="605" type="curve"/>
      <point x="650" y="722"/>
      <point x="650" y="605"/>
      <point x="650" y="722" type="curve"/>
      <point x="650" y="722"/>
      <point x="650" y="722"/>
      <point x="650" y="722" type="curve"/>
    </contour>
    <contour>
      <point x="118" y="722"/>
      <point x="118" y="605"/>
      <point x="118" y="722" type="curve"/>
      <point x="118" y="722"/>
      <point x="118" y="722"/>
      <point x="118" y="722" type="curve"/>
      <point x="118" y="605"/>
      <point x="118" y="722"/>
      <point x="118" y="605" type="curve"/>
      <point x="118" y="605"/>
      <point x="118" y="605"/>
      <point x="118" y="605" type="curve"/>
    </contour>
    <contour>
      <point x="118" y="605"/>
      <point x="118" y="722"/>
      <point x="118" y="605" type="curve"/>
      <point x="118" y="605"/>
      <point x="118" y="605"/>
      <point x="118" y="605" type="curve"/>
      <point x="118" y="722"/>
      <point x="118" y="605"/>
      <point x="118" y="722" type="curve"/>
      <point x="118" y="722"/>
      <point x="118" y="722"/>
      <point x="118" y="722" type="curve"/>
    </contour>
    <contour>
      <point x="118" y="0"/>
      <point x="118" y="117"/>
      <point x="118" y="0" type="curve"/>
      <point x="118" y="0"/>
      <point x="118" y="0"/>
      <point x="118" y="0" type="curve"/>
      <point x="118" y="117"/>
      <point x="118" y="0"/>
      <point x="118" y="117" type="curve"/>
      <point x="118" y="117"/>
      <point x="118" y="117"/>
      <point x="118" y="117" type="curve"/>
    </contour>
    <contour>
      <point x="118" y="117"/>
      <point x="118" y="0"/>
      <point x="118" y="117" type="curve"/>
      <point x="118" y="117"/>
      <point x="118" y="117"/>
      <point x="118" y="117" type="curve"/>
      <point x="118" y="0"/>
      <point x="118" y="117"/>
      <point x="118" y="0" type="curve"/>
      <point x="118" y="0"/>
      <point x="118" y="0"/>
      <point x="118" y="0" type="curve"/>
    </contour>
    <contour>
      <point x="486" y="722"/>
      <point x="804" y="722"/>
      <point x="542" y="722" type="curve"/>
      <point x="370" y="610"/>
      <point x="222" y="492"/>
      <point x="50" y="380" type="curve"/>
      <point x="276" y="380"/>
      <point x="33" y="380"/>
      <point x="259" y="380" type="curve"/>
      <point x="444" y="512"/>
      <point x="541" y="579"/>
      <point x="748" y="722" type="curve"/>
    </contour>
    <contour>
      <point x="198" y="0"/>
      <point x="38" y="0"/>
      <point x="198" y="0" type="curve"/>
      <point x="198" y="0"/>
      <point x="198" y="722"/>
      <point x="198" y="722" type="curve"/>
      <point x="38" y="722"/>
      <point x="198" y="722"/>
      <point x="38" y="722" type="curve"/>
      <point x="37" y="481"/>
      <point x="38" y="241"/>
      <point x="38" y="0" type="curve"/>
    </contour>
    <contour>
      <point x="839" y="0"/>
      <point x="505" y="0"/>
      <point x="776" y="0" type="curve"/>
      <point x="578" y="145"/>
      <point x="441" y="248"/>
      <point x="259" y="380" type="curve"/>
      <point x="33" y="380"/>
      <point x="276" y="380"/>
      <point x="50" y="380" type="curve"/>
      <point x="220" y="257"/>
      <point x="384" y="135"/>
      <point x="568" y="0" type="curve"/>
    </contour>
  </outline>
</glyph>
<glyph name="M" format="1">
  <advance width="1117"/>
  <unicode hex="004D"/>
  <outline>
    <contour>
      <point x="1007" y="0"/>
      <point x="1007" y="117"/>
      <point x="1007" y="0" type="curve"/>
      <point x="1007" y="0"/>
      <point x="1007" y="0"/>
      <point x="1007" y="0" type="curve"/>
      <point x="1007" y="117"/>
      <point x="1007" y="0"/>
      <point x="1007" y="117" type="curve"/>
      <point x="1007" y="117"/>
      <point x="1007" y="117"/>
      <point x="1007" y="117" type="curve"/>
    </contour>
    <contour>
      <point x="1007" y="117"/>
      <point x="1007" y="0"/>
      <point x="1007" y="117" type="curve"/>
      <point x="1007" y="117"/>
      <point x="1007" y="117"/>
      <point x="1007" y="117" type="curve"/>
      <point x="1007" y="0"/>
      <point x="1007" y="117"/>
      <point x="1007" y="0" type="curve"/>
      <point x="1007" y="0"/>
      <point x="1007" y="0"/>
      <point x="1007" y="0" type="curve"/>
    </contour>
    <contour>
      <point x="112" y="117"/>
      <point x="112" y="0"/>
      <point x="112" y="117" type="curve"/>
      <point x="112" y="117"/>
      <point x="112" y="117"/>
      <point x="112" y="117" type="curve"/>
      <point x="112" y="0"/>
      <point x="112" y="117"/>
      <point x="112" y="0" type="curve"/>
      <point x="112" y="0"/>
      <point x="112" y="0"/>
      <point x="112" y="0" type="curve"/>
    </contour>
    <contour>
      <point x="188" y="722"/>
      <point x="188" y="605"/>
      <point x="188" y="722" type="curve"/>
      <point x="188" y="722"/>
      <point x="188" y="722"/>
      <point x="188" y="722" type="curve"/>
      <point x="188" y="605"/>
      <point x="188" y="722"/>
      <point x="188" y="605" type="curve"/>
      <point x="188" y="605"/>
      <point x="188" y="605"/>
      <point x="188" y="605" type="curve"/>
    </contour>
    <contour>
      <point x="928" y="605"/>
      <point x="928" y="722"/>
      <point x="928" y="605" type="curve"/>
      <point x="928" y="605"/>
      <point x="928" y="605"/>
      <point x="928" y="605" type="curve"/>
      <point x="928" y="722"/>
      <point x="928" y="605"/>
      <point x="928" y="722" type="curve"/>
      <point x="928" y="722"/>
      <point x="928" y="722"/>
      <point x="928" y="722" type="curve"/>
    </contour>
    <contour>
      <point x="112" y="0"/>
      <point x="112" y="117"/>
      <point x="112" y="0" type="curve"/>
      <point x="112" y="0"/>
      <point x="112" y="0"/>
      <point x="112" y="0" type="curve"/>
      <point x="112" y="117"/>
      <point x="112" y="0"/>
      <point x="112" y="117" type="curve"/>
      <point x="112" y="117"/>
      <point x="112" y="117"/>
      <point x="112" y="117" type="curve"/>
    </contour>
    <contour>
      <point x="1086" y="0"/>
      <point x="926" y="0"/>
      <point x="1086" y="0" type="curve"/>
      <point x="1060" y="241"/>
      <point x="1026" y="481"/>
      <point x="1000" y="722" type="curve"/>
      <point x="854" y="722"/>
      <point x="1000" y="722"/>
      <point x="854" y="722" type="curve"/>
      <point x="880" y="482"/>
      <point x="900" y="240"/>
      <point x="926" y="0" type="curve"/>
    </contour>
    <contour>
      <point x="191" y="0"/>
      <point x="30" y="0"/>
      <point x="191" y="0" type="curve"/>
      <point x="215" y="241"/>
      <point x="240" y="481"/>
      <point x="265" y="722" type="curve"/>
      <point x="106" y="722"/>
      <point x="265" y="722"/>
      <point x="106" y="722" type="curve"/>
      <point x="81" y="481"/>
      <point x="55" y="241"/>
      <point x="30" y="0" type="curve"/>
    </contour>
    <contour>
      <point x="634" y="0"/>
      <point x="473" y="0"/>
      <point x="634" y="0" type="curve"/>
      <point x="512" y="241"/>
      <point x="390" y="481"/>
      <point x="268" y="722" type="curve"/>
      <point x="109" y="722"/>
      <point x="268" y="722"/>
      <point x="109" y="722" type="curve"/>
      <point x="230" y="481"/>
      <point x="352" y="241"/>
      <point x="473" y="0" type="curve"/>
    </contour>
    <contour>
      <point x="645" y="0"/>
      <point x="484" y="0"/>
      <point x="645" y="0" type="curve"/>
      <point x="765" y="241"/>
      <point x="884" y="481"/>
      <point x="1003" y="722" type="curve"/>
      <point x="845" y="722"/>
      <point x="1003" y="722"/>
      <point x="845" y="722" type="curve"/>
      <point x="724" y="481"/>
      <point x="604" y="241"/>
      <point x="484" y="0" type="curve"/>
    </contour>
  </outline>
</glyph>
<glyph name="P" format="1">
  <advance width="692"/>
  <unicode hex="0050"/>
  <outline>
    <contour>
      <point x="112" y="722"/>
      <point x="112" y="605"/>
      <point x="112" y="722" type="curve"/>
      <point x="112" y="722"/>
      <point x="112" y="722"/>
      <point x="112" y="722" type="curve"/>
      <point x="112" y="605"/>
      <point x="112" y="722"/>
      <point x="112" y="605" type="curve"/>
      <point x="112" y="605"/>
      <point x="112" y="605"/>
      <point x="112" y="605" type="curve"/>
    </contour>
    <contour>
      <point x="112" y="117"/>
      <point x="112" y="0"/>
      <point x="112" y="117" type="curve"/>
      <point x="112" y="117"/>
      <point x="112" y="117"/>
      <point x="112" y="117" type="curve"/>
      <point x="112" y="0"/>
      <point x="112" y="117"/>
      <point x="112" y="0" type="curve"/>
      <point x="112" y="0"/>
      <point x="112" y="0"/>
      <point x="112" y="0" type="curve"/>
    </contour>
    <contour>
      <point x="112" y="0"/>
      <point x="112" y="117"/>
      <point x="112" y="0" type="curve"/>
      <point x="112" y="0"/>
      <point x="112" y="0"/>
      <point x="112" y="0" type="curve"/>
      <point x="112" y="117"/>
      <point x="112" y="0"/>
      <point x="112" y="117" type="curve"/>
      <point x="112" y="117"/>
      <point x="112" y="117"/>
      <point x="112" y="117" type="curve"/>
    </contour>
    <contour>
      <point x="88" y="287"/>
      <point x="139" y="392"/>
      <point x="88" y="287" type="curve"/>
      <point x="162" y="261"/>
      <point x="228" y="242"/>
      <point x="307" y="242" type="curve"/>
      <point x="502" y="245"/>
      <point x="662" y="306"/>
      <point x="662" y="478" type="curve"/>
      <point x="662" y="657"/>
      <point x="493" y="722"/>
      <point x="291" y="722" type="curve"/>
      <point x="232" y="722"/>
      <point x="174" y="722"/>
      <point x="116" y="722" type="curve"/>
      <point x="116" y="605"/>
      <point x="116" y="722"/>
      <point x="116" y="605" type="curve"/>
      <point x="167" y="605"/>
      <point x="218" y="605"/>
      <point x="269" y="605" type="curve"/>
      <point x="393" y="605"/>
      <point x="502" y="580"/>
      <point x="502" y="472" type="curve"/>
      <point x="502" y="387"/>
      <point x="419" y="359"/>
      <point x="322" y="359" type="curve"/>
      <point x="253" y="359"/>
      <point x="204" y="370"/>
      <point x="139" y="392" type="curve"/>
    </contour>
    <contour>
      <point x="191" y="0"/>
      <point x="30" y="0"/>
      <point x="191" y="0" type="curve"/>
      <point x="191" y="241"/>
      <point x="191" y="481"/>
      <point x="191" y="722" type="curve"/>
      <point x="30" y="722"/>
      <point x="191" y="722"/>
      <point x="30" y="722" type="curve"/>
      <point x="30" y="481"/>
      <point x="30" y="241"/>
      <point x="30" y="0" type="curve"/>
    </contour>
  </outline>
</glyph>
<glyph name="T" format="1">
  <advance width="866"/>
  <unicode hex="0054"/>
  <outline>
    <contour>
      <point x="30" y="663"/>
      <point x="153" y="663"/>
      <point x="30" y="663" type="curve"/>
      <point x="30" y="663"/>
      <point x="30" y="663"/>
      <point x="30" y="663" type="curve"/>
      <point x="153" y="663"/>
      <point x="30" y="663"/>
      <point x="153" y="663" type="curve"/>
      <point x="153" y="663"/>
      <point x="153" y="663"/>
      <point x="153" y="663" type="curve"/>
    </contour>
    <contour>
      <point x="713" y="663"/>
      <point x="836" y="663"/>
      <point x="713" y="663" type="curve"/>
      <point x="713" y="663"/>
      <point x="713" y="663"/>
      <point x="713" y="663" type="curve"/>
      <point x="836" y="663"/>
      <point x="713" y="663"/>
      <point x="836" y="663" type="curve"/>
      <point x="836" y="663"/>
      <point x="836" y="663"/>
      <point x="836" y="663" type="curve"/>
    </contour>
    <contour>
      <point x="432" y="0"/>
      <point x="432" y="117"/>
      <point x="432" y="0" type="curve"/>
      <point x="432" y="0"/>
      <point x="432" y="0"/>
      <point x="432" y="0" type="curve"/>
      <point x="432" y="117"/>
      <point x="432" y="0"/>
      <point x="432" y="117" type="curve"/>
      <point x="432" y="117"/>
      <point x="432" y="117"/>
      <point x="432" y="117" type="curve"/>
    </contour>
    <contour>
      <point x="432" y="117"/>
      <point x="432" y="0"/>
      <point x="432" y="117" type="curve"/>
      <point x="432" y="117"/>
      <point x="432" y="117"/>
      <point x="432" y="117" type="curve"/>
      <point x="432" y="0"/>
      <point x="432" y="117"/>
      <point x="432" y="0" type="curve"/>
      <point x="432" y="0"/>
      <point x="432" y="0"/>
      <point x="432" y="0" type="curve"/>
    </contour>
    <contour>
      <point x="513" y="0"/>
      <point x="353" y="0"/>
      <point x="513" y="0" type="curve"/>
      <point x="513" y="237"/>
      <point x="513" y="473"/>
      <point x="513" y="710" type="curve"/>
      <point x="353" y="710"/>
      <point x="513" y="710"/>
      <point x="353" y="710" type="curve"/>
      <point x="353" y="473"/>
      <point x="353" y="237"/>
      <point x="353" y="0" type="curve"/>
    </contour>
    <contour>
      <point x="30" y="598"/>
      <point x="30" y="727"/>
      <point x="30" y="598" type="curve"/>
      <point x="299" y="598"/>
      <point x="567" y="598"/>
      <point x="836" y="598" type="curve"/>
      <point x="836" y="727"/>
      <point x="836" y="598"/>
      <point x="836" y="727" type="curve"/>
      <point x="567" y="727"/>
      <point x="299" y="727"/>
      <point x="30" y="727" type="curve"/>
    </contour>
  </outline>
</glyph>
<glyph name="U" format="1">
  <advance width="870"/>
  <unicode hex="0055"/>
  <outline>
    <contour>
      <point x="762" y="605"/>
      <point x="762" y="722"/>
      <point x="762" y="605" type="curve"/>
      <point x="762" y="605"/>
      <point x="762" y="605"/>
      <point x="762" y="605" type="curve"/>
      <point x="762" y="722"/>
      <point x="762" y="605"/>
      <point x="762" y="722" type="curve"/>
      <point x="762" y="722"/>
      <point x="762" y="722"/>
      <point x="762" y="722" type="curve"/>
    </contour>
    <contour>
      <point x="762" y="722"/>
      <point x="762" y="605"/>
      <point x="762" y="722" type="curve"/>
      <point x="762" y="722"/>
      <point x="762" y="722"/>
      <point x="762" y="722" type="curve"/>
      <point x="762" y="605"/>
      <point x="762" y="722"/>
      <point x="762" y="605" type="curve"/>
      <point x="762" y="605"/>
      <point x="762" y="605"/>
      <point x="762" y="605" type="curve"/>
    </contour>
    <contour>
      <point x="112" y="722"/>
      <point x="112" y="605"/>
      <point x="112" y="722" type="curve"/>
      <point x="112" y="722"/>
      <point x="112" y="722"/>
      <point x="112" y="722" type="curve"/>
      <point x="112" y="605"/>
      <point x="112" y="722"/>
      <point x="112" y="605" type="curve"/>
      <point x="112" y="605"/>
      <point x="112" y="605"/>
      <point x="112" y="605" type="curve"/>
    </contour>
    <contour>
      <point x="112" y="605"/>
      <point x="112" y="722"/>
      <point x="112" y="605" type="curve"/>
      <point x="112" y="605"/>
      <point x="112" y="605"/>
      <point x="112" y="605" type="curve"/>
      <point x="112" y="722"/>
      <point x="112" y="605"/>
      <point x="112" y="722" type="curve"/>
      <point x="112" y="722"/>
      <point x="112" y="722"/>
      <point x="112" y="722" type="curve"/>
    </contour>
    <contour>
      <point x="30" y="722"/>
      <point x="191" y="722"/>
      <point x="30" y="722" type="curve"/>
      <point x="30" y="568"/>
      <point x="30" y="415"/>
      <point x="30" y="261" type="curve"/>
      <point x="30" y="30"/>
      <point x="181" y="-53"/>
      <point x="432" y="-53" type="curve"/>
      <point x="687" y="-53"/>
      <point x="841" y="35"/>
      <point x="841" y="273" type="curve"/>
      <point x="841" y="422"/>
      <point x="841" y="572"/>
      <point x="841" y="722" type="curve"/>
      <point x="680" y="722"/>
      <point x="841" y="722"/>
      <point x="680" y="722" type="curve"/>
      <point x="680" y="564"/>
      <point x="680" y="407"/>
      <point x="680" y="249" type="curve"/>
      <point x="680" y="118"/>
      <point x="591" y="75"/>
      <point x="447" y="75" type="curve"/>
      <point x="285" y="75"/>
      <point x="191" y="134"/>
      <point x="191" y="285" type="curve"/>
      <point x="191" y="430"/>
      <point x="191" y="576"/>
      <point x="191" y="722" type="curve"/>
    </contour>
  </outline>
</glyph>
<glyph name="W" format="1">
  <advance width="1212"/>
  <unicode hex="0057"/>
  <outline>
    <contour>
      <point x="611" y="605"/>
      <point x="611" y="722"/>
      <point x="611" y="605" type="curve"/>
      <point x="611" y="605"/>
      <point x="611" y="605"/>
      <point x="611" y="605" type="curve"/>
      <point x="611" y="722"/>
      <point x="611" y="605"/>
      <point x="611" y="722" type="curve"/>
      <point x="611" y="722"/>
      <point x="611" y="722"/>
      <point x="611" y="722" type="curve"/>
    </contour>
    <contour>
      <point x="611" y="722"/>
      <point x="611" y="605"/>
      <point x="611" y="722" type="curve"/>
      <point x="611" y="722"/>
      <point x="611" y="722"/>
      <point x="611" y="722" type="curve"/>
      <point x="611" y="605"/>
      <point x="611" y="722"/>
      <point x="611" y="605" type="curve"/>
      <point x="611" y="605"/>
      <point x="611" y="605"/>
      <point x="611" y="605" type="curve"/>
    </contour>
    <contour>
      <point x="127" y="605"/>
      <point x="127" y="722"/>
      <point x="127" y="605" type="curve"/>
      <point x="127" y="605"/>
      <point x="127" y="605"/>
      <point x="127" y="605" type="curve"/>
      <point x="127" y="722"/>
      <point x="127" y="605"/>
      <point x="127" y="722" type="curve"/>
      <point x="127" y="722"/>
      <point x="127" y="722"/>
      <point x="127" y="722" type="curve"/>
    </contour>
    <contour>
      <point x="127" y="722"/>
      <point x="127" y="605"/>
      <point x="127" y="722" type="curve"/>
      <point x="127" y="722"/>
      <point x="127" y="722"/>
      <point x="127" y="722" type="curve"/>
      <point x="127" y="605"/>
      <point x="127" y="722"/>
      <point x="127" y="605" type="curve"/>
      <point x="127" y="605"/>
      <point x="127" y="605"/>
      <point x="127" y="605" type="curve"/>
    </contour>
    <contour>
      <point x="1084" y="722"/>
      <point x="1084" y="605"/>
      <point x="1084" y="722" type="curve"/>
      <point x="1084" y="722"/>
      <point x="1084" y="722"/>
      <point x="1084" y="722" type="curve"/>
      <point x="1084" y="605"/>
      <point x="1084" y="722"/>
      <point x="1084" y="605" type="curve"/>
      <point x="1084" y="605"/>
      <point x="1084" y="605"/>
      <point x="1084" y="605" type="curve"/>
    </contour>
    <contour>
      <point x="1084" y="605"/>
      <point x="1084" y="722"/>
      <point x="1084" y="605" type="curve"/>
      <point x="1084" y="605"/>
      <point x="1084" y="605"/>
      <point x="1084" y="605" type="curve"/>
      <point x="1084" y="722"/>
      <point x="1084" y="605"/>
      <point x="1084" y="722" type="curve"/>
      <point x="1084" y="722"/>
      <point x="1084" y="722"/>
      <point x="1084" y="722" type="curve"/>
    </contour>
    <contour>
      <point x="428" y="0"/>
      <point x="273" y="0"/>
      <point x="428" y="0" type="curve"/>
      <point x="515" y="241"/>
      <point x="602" y="481"/>
      <point x="689" y="722" type="curve"/>
      <point x="529" y="722"/>
      <point x="689" y="722"/>
      <point x="529" y="722" type="curve"/>
      <point x="444" y="481"/>
      <point x="359" y="241"/>
      <point x="273" y="0" type="curve"/>
    </contour>
    <contour>
      <point x="538" y="722"/>
      <point x="698" y="722"/>
      <point x="538" y="722" type="curve"/>
      <point x="616" y="481"/>
      <point x="694" y="241"/>
      <point x="773" y="0" type="curve"/>
      <point x="927" y="0"/>
      <point x="773" y="0"/>
      <point x="927" y="0" type="curve"/>
      <point x="851" y="241"/>
      <point x="774" y="481"/>
      <point x="698" y="722" type="curve"/>
    </contour>
    <contour>
      <point x="30" y="722"/>
      <point x="192" y="722"/>
      <point x="30" y="722" type="curve"/>
      <point x="109" y="481"/>
      <point x="187" y="241"/>
      <point x="266" y="0" type="curve"/>
      <point x="420" y="0"/>
      <point x="266" y="0"/>
      <point x="420" y="0" type="curve"/>
      <point x="344" y="241"/>
      <point x="268" y="481"/>
      <point x="192" y="722" type="curve"/>
    </contour>
    <contour>
      <point x="1019" y="722"/>
      <point x="1181" y="722"/>
      <point x="1019" y="722" type="curve"/>
      <point x="940" y="481"/>
      <point x="860" y="241"/>
      <point x="780" y="0" type="curve"/>
      <point x="935" y="0"/>
      <point x="780" y="0"/>
      <point x="935" y="0" type="curve"/>
      <point x="1017" y="241"/>
      <point x="1099" y="481"/>
      <point x="1181" y="722" type="curve"/>
    </contour>
  </outline>
</glyph>
<glyph name="X" format="1">
  <advance width="950"/>
  <unicode hex="0058"/>
  <outline>
    <contour>
      <point x="151" y="0"/>
      <point x="151" y="117"/>
      <point x="151" y="0" type="curve"/>
      <point x="151" y="0"/>
      <point x="151" y="0"/>
      <point x="151" y="0" type="curve"/>
      <point x="151" y="117"/>
      <point x="151" y="0"/>
      <point x="151" y="117" type="curve"/>
      <point x="151" y="117"/>
      <point x="151" y="117"/>
      <point x="151" y="117" type="curve"/>
    </contour>
    <contour>
      <point x="151" y="117"/>
      <point x="151" y="0"/>
      <point x="151" y="117" type="curve"/>
      <point x="151" y="117"/>
      <point x="151" y="117"/>
      <point x="151" y="117" type="curve"/>
      <point x="151" y="0"/>
      <point x="151" y="117"/>
      <point x="151" y="0" type="curve"/>
      <point x="151" y="0"/>
      <point x="151" y="0"/>
      <point x="151" y="0" type="curve"/>
    </contour>
    <contour>
      <point x="800" y="0"/>
      <point x="800" y="117"/>
      <point x="800" y="0" type="curve"/>
      <point x="800" y="0"/>
      <point x="800" y="0"/>
      <point x="800" y="0" type="curve"/>
      <point x="800" y="117"/>
      <point x="800" y="0"/>
      <point x="800" y="117" type="curve"/>
      <point x="800" y="117"/>
      <point x="800" y="117"/>
      <point x="800" y="117" type="curve"/>
    </contour>
    <contour>
      <point x="800" y="117"/>
      <point x="800" y="0"/>
      <point x="800" y="117" type="curve"/>
      <point x="800" y="117"/>
      <point x="800" y="117"/>
      <point x="800" y="117" type="curve"/>
      <point x="800" y="0"/>
      <point x="800" y="117"/>
      <point x="800" y="0" type="curve"/>
      <point x="800" y="0"/>
      <point x="800" y="0"/>
      <point x="800" y="0" type="curve"/>
    </contour>
    <contour>
      <point x="766" y="605"/>
      <point x="766" y="722"/>
      <point x="766" y="605" type="curve"/>
      <point x="766" y="605"/>
      <point x="766" y="605"/>
      <point x="766" y="605" type="curve"/>
      <point x="766" y="722"/>
      <point x="766" y="605"/>
      <point x="766" y="722" type="curve"/>
      <point x="766" y="722"/>
      <point x="766" y="722"/>
      <point x="766" y="722" type="curve"/>
    </contour>
    <contour>
      <point x="766" y="722"/>
      <point x="766" y="605"/>
      <point x="766" y="722" type="curve"/>
      <point x="766" y="722"/>
      <point x="766" y="722"/>
      <point x="766" y="722" type="curve"/>
      <point x="766" y="605"/>
      <point x="766" y="722"/>
      <point x="766" y="605" type="curve"/>
      <point x="766" y="605"/>
      <point x="766" y="605"/>
      <point x="766" y="605" type="curve"/>
    </contour>
    <contour>
      <point x="190" y="722"/>
      <point x="190" y="605"/>
      <point x="190" y="722" type="curve"/>
      <point x="190" y="722"/>
      <point x="190" y="722"/>
      <point x="190" y="722" type="curve"/>
      <point x="190" y="605"/>
      <point x="190" y="722"/>
      <point x="190" y="605" type="curve"/>
      <point x="190" y="605"/>
      <point x="190" y="605"/>
      <point x="190" y="605" type="curve"/>
    </contour>
    <contour>
      <point x="190" y="605"/>
      <point x="190" y="722"/>
      <point x="190" y="605" type="curve"/>
      <point x="190" y="605"/>
      <point x="190" y="605"/>
      <point x="190" y="605" type="curve"/>
      <point x="190" y="722"/>
      <point x="190" y="605"/>
      <point x="190" y="722" type="curve"/>
      <point x="190" y="722"/>
      <point x="190" y="722"/>
      <point x="190" y="722" type="curve"/>
    </contour>
    <contour>
      <point x="688" y="722"/>
      <point x="878" y="722"/>
      <point x="688" y="722" type="curve"/>
      <point x="470" y="480"/>
      <point x="248" y="242"/>
      <point x="30" y="0" type="curve"/>
      <point x="242" y="0"/>
      <point x="30" y="0"/>
      <point x="242" y="0" type="curve"/>
      <point x="455" y="239"/>
      <point x="664" y="483"/>
      <point x="878" y="722" type="curve"/>
    </contour>
    <contour>
      <point x="82" y="722"/>
      <point x="272" y="722"/>
      <point x="82" y="722" type="curve"/>
      <point x="294" y="482"/>
      <point x="503" y="240"/>
      <point x="716" y="0" type="curve"/>
      <point x="920" y="0"/>
      <point x="716" y="0"/>
      <point x="920" y="0" type="curve"/>
      <point x="705" y="242"/>
      <point x="487" y="480"/>
      <point x="272" y="722" type="curve"/>
    </contour>
  </outline>
</glyph>
<glyph name="Y" format="1">
  <advance width="851"/>
  <unicode hex="0059"/>
  <outline>
    <contour>
      <point x="417" y="117"/>
      <point x="417" y="0"/>
      <point x="417" y="117" type="curve"/>
      <point x="417" y="117"/>
      <point x="417" y="117"/>
      <point x="417" y="117" type="curve"/>
      <point x="417" y="0"/>
      <point x="417" y="117"/>
      <point x="417" y="0" type="curve"/>
      <point x="417" y="0"/>
      <point x="417" y="0"/>
      <point x="417" y="0" type="curve"/>
    </contour>
    <contour>
      <point x="417" y="0"/>
      <point x="417" y="117"/>
      <point x="417" y="0" type="curve"/>
      <point x="417" y="0"/>
      <point x="417" y="0"/>
      <point x="417" y="0" type="curve"/>
      <point x="417" y="117"/>
      <point x="417" y="0"/>
      <point x="417" y="117" type="curve"/>
      <point x="417" y="117"/>
      <point x="417" y="117"/>
      <point x="417" y="117" type="curve"/>
    </contour>
    <contour>
      <point x="724" y="722"/>
      <point x="724" y="605"/>
      <point x="724" y="722" type="curve"/>
      <point x="724" y="722"/>
      <point x="724" y="722"/>
      <point x="724" y="722" type="curve"/>
      <point x="724" y="605"/>
      <point x="724" y="722"/>
      <point x="724" y="605" type="curve"/>
      <point x="724" y="605"/>
      <point x="724" y="605"/>
      <point x="724" y="605" type="curve"/>
    </contour>
    <contour>
      <point x="127" y="722"/>
      <point x="127" y="605"/>
      <point x="127" y="722" type="curve"/>
      <point x="127" y="722"/>
      <point x="127" y="722"/>
      <point x="127" y="722" type="curve"/>
      <point x="127" y="605"/>
      <point x="127" y="722"/>
      <point x="127" y="605" type="curve"/>
      <point x="127" y="605"/>
      <point x="127" y="605"/>
      <point x="127" y="605" type="curve"/>
    </contour>
    <contour>
      <point x="127" y="605"/>
      <point x="127" y="722"/>
      <point x="127" y="605" type="curve"/>
      <point x="127" y="605"/>
      <point x="127" y="605"/>
      <point x="127" y="605" type="curve"/>
      <point x="127" y="722"/>
      <point x="127" y="605"/>
      <point x="127" y="722" type="curve"/>
      <point x="127" y="722"/>
      <point x="127" y="722"/>
      <point x="127" y="722" type="curve"/>
    </contour>
    <contour>
      <point x="724" y="605"/>
      <point x="724" y="722"/>
      <point x="724" y="605" type="curve"/>
      <point x="724" y="605"/>
      <point x="724" y="605"/>
      <point x="724" y="605" type="curve"/>
      <point x="724" y="722"/>
      <point x="724" y="605"/>
      <point x="724" y="722" type="curve"/>
      <point x="724" y="722"/>
      <point x="724" y="722"/>
      <point x="724" y="722" type="curve"/>
    </contour>
    <contour>
      <point x="30" y="722"/>
      <point x="193" y="722"/>
      <point x="30" y="722" type="curve"/>
      <point x="132" y="594"/>
      <point x="234" y="465"/>
      <point x="336" y="337" type="curve"/>
      <point x="498" y="337"/>
      <point x="336" y="337"/>
      <point x="498" y="337" type="curve"/>
      <point x="396" y="465"/>
      <point x="294" y="594"/>
      <point x="193" y="722" type="curve"/>
    </contour>
    <contour>
      <point x="658" y="722"/>
      <point x="820" y="722"/>
      <point x="658" y="722" type="curve"/>
      <point x="550" y="594"/>
      <point x="443" y="465"/>
      <point x="336" y="337" type="curve"/>
      <point x="498" y="337"/>
      <point x="336" y="337"/>
      <point x="498" y="337" type="curve"/>
      <point x="606" y="465"/>
      <point x="713" y="594"/>
      <point x="820" y="722" type="curve"/>
    </contour>
    <contour>
      <point x="504" y="0"/>
      <point x="329" y="0"/>
      <point x="504" y="0" type="curve"/>
      <point x="504" y="115"/>
      <point x="504" y="231"/>
      <point x="504" y="346" type="curve"/>
      <point x="329" y="346"/>
      <point x="504" y="346"/>
      <point x="329" y="346" type="curve"/>
      <point x="329" y="231"/>
      <point x="329" y="115"/>
      <point x="329" y="0" type="curve"/>
    </contour>
  </outline>
</glyph>
<glyph name="Z" format="1">
  <advance width="871"/>
  <unicode hex="005A"/>
  <outline>
    <contour>
      <point x="133" y="664"/>
      <point x="256" y="664"/>
      <point x="133" y="664" type="curve"/>
      <point x="133" y="664"/>
      <point x="133" y="664"/>
      <point x="133" y="664" type="curve"/>
      <point x="256" y="664"/>
      <point x="133" y="664"/>
      <point x="256" y="664" type="curve"/>
      <point x="256" y="664"/>
      <point x="256" y="664"/>
      <point x="256" y="664" type="curve"/>
    </contour>
    <contour>
      <point x="840" y="58"/>
      <point x="718" y="58"/>
      <point x="840" y="58" type="curve"/>
      <point x="840" y="58"/>
      <point x="840" y="58"/>
      <point x="840" y="58" type="curve"/>
      <point x="718" y="58"/>
      <point x="840" y="58"/>
      <point x="718" y="58" type="curve"/>
      <point x="718" y="58"/>
      <point x="718" y="58"/>
      <point x="718" y="58" type="curve"/>
    </contour>
    <contour>
      <point x="133" y="605"/>
      <point x="133" y="722"/>
      <point x="133" y="605" type="curve"/>
      <point x="343" y="605"/>
      <point x="553" y="605"/>
      <point x="764" y="605" type="curve"/>
      <point x="752" y="619"/>
      <point x="728" y="612"/>
      <point x="717" y="625" type="curve"/>
      <point x="708" y="638"/>
      <point x="704" y="652"/>
      <point x="695" y="664" type="curve"/>
      <point x="686" y="655"/>
      <point x="670" y="664"/>
      <point x="661" y="655" type="curve"/>
      <point x="455" y="471"/>
      <point x="661" y="655"/>
      <point x="30" y="117" type="curve"/>
      <point x="30" y="58"/>
      <point x="30" y="117"/>
      <point x="30" y="58" type="curve"/>
      <point x="30" y="0"/>
      <point x="30" y="58"/>
      <point x="30" y="0" type="curve"/>
      <point x="88" y="0"/>
      <point x="30" y="0"/>
      <point x="88" y="0" type="curve"/>
      <point x="840" y="0"/>
      <point x="589" y="0"/>
      <point x="840" y="0" type="curve"/>
      <point x="840" y="117"/>
      <point x="840" y="0"/>
      <point x="840" y="117" type="curve"/>
      <point x="589" y="117"/>
      <point x="338" y="117"/>
      <point x="88" y="117" type="curve"/>
      <point x="100" y="108"/>
      <point x="116" y="108"/>
      <point x="128" y="100" type="curve"/>
      <point x="138" y="87"/>
      <point x="144" y="71"/>
      <point x="154" y="58" type="curve"/>
      <point x="164" y="66"/>
      <point x="180" y="59"/>
      <point x="190" y="67" type="curve"/>
      <point x="397" y="252"/>
      <point x="190" y="67"/>
      <point x="827" y="605" type="curve"/>
      <point x="827" y="664"/>
      <point x="827" y="605"/>
      <point x="827" y="664" type="curve"/>
      <point x="827" y="722"/>
      <point x="827" y="664"/>
      <point x="827" y="722" type="curve"/>
      <point x="764" y="722"/>
      <point x="827" y="722"/>
      <point x="764" y="722" type="curve"/>
      <point x="553" y="722"/>
      <point x="343" y="722"/>
      <point x="133" y="722" type="curve"/>
    </contour>
  </outline>
</glyph>
<glyph name="c" format="1">
  <advance width="700"/>
  <unicode hex="0063"/>
  <outline>
    <contour>
      <point x="527" y="469"/>
      <point x="650" y="469"/>
      <point x="527" y="469" type="curve"/>
      <point x="527" y="469"/>
      <point x="527" y="469"/>
      <point x="527" y="469" type="curve"/>
      <point x="650" y="469"/>
      <point x="527" y="469"/>
      <point x="650" y="469" type="curve"/>
      <point x="650" y="469"/>
      <point x="650" y="469"/>
      <point x="650" y="469" type="curve"/>
    </contour>
    <contour>
      <point x="650" y="469"/>
      <point x="555" y="387"/>
      <point x="650" y="469" type="curve"/>
      <point x="576" y="507"/>
      <point x="491" y="538"/>
      <point x="405" y="538" type="curve"/>
      <point x="189" y="538"/>
      <point x="30" y="466"/>
      <point x="30" y="267" type="curve"/>
      <point x="30" y="70"/>
      <point x="183" y="-5"/>
      <point x="396" y="-5" type="curve"/>
      <point x="494" y="-5"/>
      <point x="593" y="20"/>
      <point x="670" y="79" type="curve"/>
      <point x="561" y="167"/>
      <point x="670" y="79"/>
      <point x="561" y="167" type="curve"/>
      <point x="516" y="132"/>
      <point x="460" y="117"/>
      <point x="403" y="117" type="curve"/>
      <point x="282" y="117"/>
      <point x="191" y="155"/>
      <point x="191" y="267" type="curve"/>
      <point x="191" y="377"/>
      <point x="278" y="416"/>
      <point x="397" y="416" type="curve"/>
      <point x="452" y="416"/>
      <point x="508" y="411"/>
      <point x="555" y="387" type="curve"/>
    </contour>
  </outline>
</glyph>
<glyph name="h" format="1">
  <advance width="705"/>
  <unicode hex="0068"/>
  <outline>
    <contour>
      <point x="593" y="-1"/>
      <point x="593" y="116"/>
      <point x="593" y="-1" type="curve"/>
      <point x="593" y="-1"/>
      <point x="593" y="-1"/>
      <point x="593" y="-1" type="curve"/>
      <point x="593" y="116"/>
      <point x="593" y="-1"/>
      <point x="593" y="116" type="curve"/>
      <point x="593" y="116"/>
      <point x="593" y="116"/>
      <point x="593" y="116" type="curve"/>
    </contour>
    <contour>
      <point x="110" y="-1"/>
      <point x="110" y="116"/>
      <point x="110" y="-1" type="curve"/>
      <point x="110" y="-1"/>
      <point x="110" y="-1"/>
      <point x="110" y="-1" type="curve"/>
      <point x="110" y="116"/>
      <point x="110" y="-1"/>
      <point x="110" y="116" type="curve"/>
      <point x="110" y="116"/>
      <point x="110" y="116"/>
      <point x="110" y="116" type="curve"/>
    </contour>
    <contour>
      <point x="110" y="799"/>
      <point x="110" y="683"/>
      <point x="110" y="799" type="curve"/>
      <point x="110" y="799"/>
      <point x="110" y="799"/>
      <point x="110" y="799" type="curve"/>
      <point x="110" y="683"/>
      <point x="110" y="799"/>
      <point x="110" y="683" type="curve"/>
      <point x="110" y="683"/>
      <point x="110" y="683"/>
      <point x="110" y="683" type="curve"/>
    </contour>
    <contour>
      <point x="110" y="116"/>
      <point x="110" y="-1"/>
      <point x="110" y="116" type="curve"/>
      <point x="110" y="116"/>
      <point x="110" y="116"/>
      <point x="110" y="116" type="curve"/>
      <point x="110" y="-1"/>
      <point x="110" y="116"/>
      <point x="110" y="-1" type="curve"/>
      <point x="110" y="-1"/>
      <point x="110" y="-1"/>
      <point x="110" y="-1" type="curve"/>
    </contour>
    <contour>
      <point x="593" y="116"/>
      <point x="593" y="-1"/>
      <point x="593" y="116" type="curve"/>
      <point x="593" y="116"/>
      <point x="593" y="116"/>
      <point x="593" y="116" type="curve"/>
      <point x="593" y="-1"/>
      <point x="593" y="116"/>
      <point x="593" y="-1" type="curve"/>
      <point x="593" y="-1"/>
      <point x="593" y="-1"/>
      <point x="593" y="-1" type="curve"/>
    </contour>
    <contour>
      <point x="154" y="297"/>
      <point x="71" y="356"/>
      <point x="154" y="297" type="curve"/>
      <point x="195" y="377"/>
      <point x="287" y="416"/>
      <point x="377" y="416" type="curve"/>
      <point x="460" y="416"/>
      <point x="514" y="382"/>
      <point x="514" y="305" type="curve"/>
      <point x="514" y="204"/>
      <point x="514" y="102"/>
      <point x="514" y="0" type="curve"/>
      <point x="674" y="0"/>
      <point x="514" y="0"/>
      <point x="674" y="0" type="curve"/>
      <point x="674" y="106"/>
      <point x="674" y="211"/>
      <point x="674" y="317" type="curve"/>
      <point x="674" y="471"/>
      <point x="563" y="533"/>
      <point x="396" y="533" type="curve"/>
      <point x="260" y="533"/>
      <point x="123" y="478"/>
      <point x="71" y="356" type="curve"/>
    </contour>
    <contour>
      <point x="191" y="0"/>
      <point x="30" y="0"/>
      <point x="191" y="0" type="curve"/>
      <point x="191" y="267"/>
      <point x="191" y="533"/>
      <point x="191" y="800" type="curve"/>
      <point x="30" y="800"/>
      <point x="191" y="800"/>
      <point x="30" y="800" type="curve"/>
      <point x="30" y="533"/>
      <point x="30" y="267"/>
      <point x="30" y="0" type="curve"/>
    </contour>
  </outline>
</glyph>
<glyph name="i" format="1">
  <advance width="249"/>
  <unicode hex="0069"/>
  <outline>
    <contour>
      <point x="125" y="117"/>
      <point x="125" y="0"/>
      <point x="125" y="117" type="curve"/>
      <point x="125" y="117"/>
      <point x="125" y="117"/>
      <point x="125" y="117" type="curve"/>
      <point x="125" y="0"/>
      <point x="125" y="117"/>
      <point x="125" y="0" type="curve"/>
      <point x="125" y="0"/>
      <point x="125" y="0"/>
      <point x="125" y="0" type="curve"/>
    </contour>
    <contour>
      <point x="125" y="0"/>
      <point x="125" y="117"/>
      <point x="125" y="0" type="curve"/>
      <point x="125" y="0"/>
      <point x="125" y="0"/>
      <point x="125" y="0" type="curve"/>
      <point x="125" y="117"/>
      <point x="125" y="0"/>
      <point x="125" y="117" type="curve"/>
      <point x="125" y="117"/>
      <point x="125" y="117"/>
      <point x="125" y="117" type="curve"/>
    </contour>
    <contour>
      <point x="125" y="533"/>
      <point x="125" y="416"/>
      <point x="125" y="533" type="curve"/>
      <point x="125" y="533"/>
      <point x="125" y="533"/>
      <point x="125" y="533" type="curve"/>
      <point x="125" y="416"/>
      <point x="125" y="533"/>
      <point x="125" y="416" type="curve"/>
      <point x="125" y="416"/>
      <point x="125" y="416"/>
      <point x="125" y="416" type="curve"/>
    </contour>
    <contour>
      <point x="219" y="670"/>
      <point x="30" y="670"/>
      <point x="219" y="670" type="curve"/>
      <point x="219" y="722"/>
      <point x="178" y="746"/>
      <point x="123" y="746" type="curve"/>
      <point x="68" y="746"/>
      <point x="30" y="719"/>
      <point x="30" y="670" type="curve"/>
      <point x="219" y="670"/>
      <point x="30" y="670"/>
      <point x="219" y="670" type="curve"/>
      <point x="219" y="617"/>
      <point x="178" y="595"/>
      <point x="123" y="595" type="curve"/>
      <point x="67" y="595"/>
      <point x="30" y="619"/>
      <point x="30" y="670" type="curve"/>
    </contour>
    <contour>
      <point x="210" y="0"/>
      <point x="42" y="0"/>
      <point x="210" y="0" type="curve"/>
      <point x="210" y="178"/>
      <point x="210" y="355"/>
      <point x="210" y="533" type="curve"/>
      <point x="42" y="533"/>
      <point x="210" y="533"/>
      <point x="42" y="533" type="curve"/>
      <point x="42" y="355"/>
      <point x="42" y="178"/>
      <point x="42" y="0" type="curve"/>
    </contour>
  </outline>
</glyph>
<glyph name="k" format="1">
  <advance width="799"/>
  <unicode hex="006B"/>
  <outline>
    <contour>
      <point x="124" y="116"/>
      <point x="124" y="-1"/>
      <point x="124" y="116" type="curve"/>
      <point x="124" y="116"/>
      <point x="124" y="116"/>
      <point x="124" y="116" type="curve"/>
      <point x="124" y="-1"/>
      <point x="124" y="116"/>
      <point x="124" y="-1" type="curve"/>
      <point x="124" y="-1"/>
      <point x="124" y="-1"/>
      <point x="124" y="-1" type="curve"/>
    </contour>
    <contour>
      <point x="632" y="-1"/>
      <point x="632" y="116"/>
      <point x="632" y="-1" type="curve"/>
      <point x="632" y="-1"/>
      <point x="632" y="-1"/>
      <point x="632" y="-1" type="curve"/>
      <point x="632" y="116"/>
      <point x="632" y="-1"/>
      <point x="632" y="116" type="curve"/>
      <point x="632" y="116"/>
      <point x="632" y="116"/>
      <point x="632" y="116" type="curve"/>
    </contour>
    <contour>
      <point x="598" y="416"/>
      <point x="598" y="533"/>
      <point x="598" y="416" type="curve"/>
      <point x="598" y="416"/>
      <point x="598" y="416"/>
      <point x="598" y="416" type="curve"/>
      <point x="598" y="533"/>
      <point x="598" y="416"/>
      <point x="598" y="533" type="curve"/>
      <point x="598" y="533"/>
      <point x="598" y="533"/>
      <point x="598" y="533" type="curve"/>
    </contour>
    <contour>
      <point x="124" y="-1"/>
      <point x="124" y="116"/>
      <point x="124" y="-1" type="curve"/>
      <point x="124" y="-1"/>
      <point x="124" y="-1"/>
      <point x="124" y="-1" type="curve"/>
      <point x="124" y="116"/>
      <point x="124" y="-1"/>
      <point x="124" y="116" type="curve"/>
      <point x="124" y="116"/>
      <point x="124" y="116"/>
      <point x="124" y="116" type="curve"/>
    </contour>
    <contour>
      <point x="598" y="533"/>
      <point x="598" y="416"/>
      <point x="598" y="533" type="curve"/>
      <point x="598" y="533"/>
      <point x="598" y="533"/>
      <point x="598" y="533" type="curve"/>
      <point x="598" y="416"/>
      <point x="598" y="533"/>
      <point x="598" y="416" type="curve"/>
      <point x="598" y="416"/>
      <point x="598" y="416"/>
      <point x="598" y="416" type="curve"/>
    </contour>
    <contour>
      <point x="127" y="799"/>
      <point x="127" y="683"/>
      <point x="127" y="799" type="curve"/>
      <point x="127" y="799"/>
      <point x="127" y="799"/>
      <point x="127" y="799" type="curve"/>
      <point x="127" y="683"/>
      <point x="127" y="799"/>
      <point x="127" y="683" type="curve"/>
      <point x="127" y="683"/>
      <point x="127" y="683"/>
      <point x="127" y="683" type="curve"/>
    </contour>
    <contour>
      <point x="206" y="0"/>
      <point x="45" y="0"/>
      <point x="206" y="0" type="curve"/>
      <point x="206" y="0"/>
      <point x="206" y="800"/>
      <point x="206" y="800" type="curve"/>
      <point x="45" y="800"/>
      <point x="206" y="800"/>
      <point x="45" y="800" type="curve"/>
      <point x="45" y="533"/>
      <point x="45" y="267"/>
      <point x="45" y="0" type="curve"/>
    </contour>
    <contour>
      <point x="499" y="533"/>
      <point x="723" y="533"/>
      <point x="489" y="533" type="curve"/>
      <point x="346" y="447"/>
      <point x="203" y="361"/>
      <point x="60" y="275" type="curve"/>
      <point x="293" y="275"/>
      <point x="70" y="275"/>
      <point x="303" y="275" type="curve"/>
      <point x="446" y="361"/>
      <point x="589" y="447"/>
      <point x="733" y="533" type="curve"/>
    </contour>
    <contour>
      <point x="754" y="0"/>
      <point x="531" y="0"/>
      <point x="764" y="0" type="curve"/>
      <point x="611" y="92"/>
      <point x="458" y="183"/>
      <point x="303" y="275" type="curve"/>
      <point x="70" y="275"/>
      <point x="293" y="275"/>
      <point x="60" y="275" type="curve"/>
      <point x="213" y="183"/>
      <point x="368" y="92"/>
      <point x="521" y="0" type="curve"/>
    </contour>
  </outline>
</glyph>
<glyph name="l" format="1">
  <advance width="221"/>
  <unicode hex="006C"/>
  <outline>
    <contour>
      <point x="112" y="116"/>
      <point x="112" y="-1"/>
      <point x="112" y="116" type="curve"/>
      <point x="112" y="116"/>
      <point x="112" y="116"/>
      <point x="112" y="116" type="curve"/>
      <point x="112" y="-1"/>
      <point x="112" y="116"/>
      <point x="112" y="-1" type="curve"/>
      <point x="112" y="-1"/>
      <point x="112" y="-1"/>
      <point x="112" y="-1" type="curve"/>
    </contour>
    <contour>
      <point x="114" y="799"/>
      <point x="114" y="683"/>
      <point x="114" y="799" type="curve"/>
      <point x="114" y="799"/>
      <point x="114" y="799"/>
      <point x="114" y="799" type="curve"/>
      <point x="114" y="683"/>
      <point x="114" y="799"/>
      <point x="114" y="683" type="curve"/>
      <point x="114" y="683"/>
      <point x="114" y="683"/>
      <point x="114" y="683" type="curve"/>
    </contour>
    <contour>
      <point x="112" y="-1"/>
      <point x="112" y="116"/>
      <point x="112" y="-1" type="curve"/>
      <point x="112" y="-1"/>
      <point x="112" y="-1"/>
      <point x="112" y="-1" type="curve"/>
      <point x="112" y="116"/>
      <point x="112" y="-1"/>
      <point x="112" y="116" type="curve"/>
      <point x="112" y="116"/>
      <point x="112" y="116"/>
      <point x="112" y="116" type="curve"/>
    </contour>
    <contour>
      <point x="191" y="0"/>
      <point x="30" y="0"/>
      <point x="191" y="0" type="curve"/>
      <point x="191" y="267"/>
      <point x="191" y="533"/>
      <point x="191" y="800" type="curve"/>
      <point x="30" y="800"/>
      <point x="191" y="800"/>
      <point x="30" y="800" type="curve"/>
      <point x="30" y="533"/>
      <point x="30" y="267"/>
      <point x="30" y="0" type="curve"/>
    </contour>
  </outline>
</glyph>
<glyph name="m" format="1">
  <advance width="1084"/>
  <unicode hex="006D"/>
  <outline>
    <contour>
      <point x="542" y="0"/>
      <point x="542" y="117"/>
      <point x="542" y="0" type="curve"/>
      <point x="542" y="0"/>
      <point x="542" y="0"/>
      <point x="542" y="0" type="curve"/>
      <point x="542" y="117"/>
      <point x="542" y="0"/>
      <point x="542" y="117" type="curve"/>
      <point x="542" y="117"/>
      <point x="542" y="117"/>
      <point x="542" y="117" type="curve"/>
    </contour>
    <contour>
      <point x="542" y="117"/>
      <point x="542" y="0"/>
      <point x="542" y="117" type="curve"/>
      <point x="542" y="117"/>
      <point x="542" y="117"/>
      <point x="542" y="117" type="curve"/>
      <point x="542" y="0"/>
      <point x="542" y="117"/>
      <point x="542" y="0" type="curve"/>
      <point x="542" y="0"/>
      <point x="542" y="0"/>
      <point x="542" y="0" type="curve"/>
    </contour>
    <contour>
      <point x="975" y="0"/>
      <point x="975" y="117"/>
      <point x="975" y="0" type="curve"/>
      <point x="975" y="0"/>
      <point x="975" y="0"/>
      <point x="975" y="0" type="curve"/>
      <point x="975" y="117"/>
      <point x="975" y="0"/>
      <point x="975" y="117" type="curve"/>
      <point x="975" y="117"/>
      <point x="975" y="117"/>
      <point x="975" y="117" type="curve"/>
    </contour>
    <contour>
      <point x="110" y="117"/>
      <point x="110" y="0"/>
      <point x="110" y="117" type="curve"/>
      <point x="110" y="117"/>
      <point x="110" y="117"/>
      <point x="110" y="117" type="curve"/>
      <point x="110" y="0"/>
      <point x="110" y="117"/>
      <point x="110" y="0" type="curve"/>
      <point x="110" y="0"/>
      <point x="110" y="0"/>
      <point x="110" y="0" type="curve"/>
    </contour>
    <contour>
      <point x="110" y="0"/>
      <point x="110" y="117"/>
      <point x="110" y="0" type="curve"/>
      <point x="110" y="0"/>
      <point x="110" y="0"/>
      <point x="110" y="0" type="curve"/>
      <point x="110" y="117"/>
      <point x="110" y="0"/>
      <point x="110" y="117" type="curve"/>
      <point x="110" y="117"/>
      <point x="110" y="117"/>
      <point x="110" y="117" type="curve"/>
    </contour>
    <contour>
      <point x="110" y="533"/>
      <point x="110" y="416"/>
      <point x="110" y="533" type="curve"/>
      <point x="110" y="533"/>
      <point x="110" y="533"/>
      <point x="110" y="533" type="curve"/>
      <point x="110" y="416"/>
      <point x="110" y="533"/>
      <point x="110" y="416" type="curve"/>
      <point x="110" y="416"/>
      <point x="110" y="416"/>
      <point x="110" y="416" type="curve"/>
    </contour>
    <contour>
      <point x="975" y="117"/>
      <point x="975" y="0"/>
      <point x="975" y="117" type="curve"/>
      <point x="975" y="117"/>
      <point x="975" y="117"/>
      <point x="975" y="117" type="curve"/>
      <point x="975" y="0"/>
      <point x="975" y="117"/>
      <point x="975" y="0" type="curve"/>
      <point x="975" y="0"/>
      <point x="975" y="0"/>
      <point x="975" y="0" type="curve"/>
    </contour>
    <contour>
      <point x="586" y="297"/>
      <point x="503" y="356"/>
      <point x="586" y="297" type="curve"/>
      <point x="625" y="373"/>
      <point x="690" y="416"/>
      <point x="774" y="416" type="curve"/>
      <point x="854" y="416"/>
      <point x="893" y="383"/>
      <point x="893" y="305" type="curve"/>
      <point x="893" y="204"/>
      <point x="893" y="102"/>
      <point x="893" y="0" type="curve"/>
      <point x="1054" y="0"/>
      <point x="893" y="0"/>
      <point x="1054" y="0" type="curve"/>
      <point x="1054" y="106"/>
      <point x="1054" y="211"/>
      <point x="1054" y="317" type="curve"/>
      <point x="1054" y="471"/>
      <point x="970" y="533"/>
      <point x="808" y="533" type="curve"/>
      <point x="671" y="533"/>
      <point x="555" y="480"/>
      <point x="503" y="356" type="curve"/>
    </contour>
    <contour>
      <point x="154" y="297"/>
      <point x="71" y="356"/>
      <point x="154" y="297" type="curve"/>
      <point x="194" y="374"/>
      <point x="257" y="416"/>
      <point x="343" y="416" type="curve"/>
      <point x="422" y="416"/>
      <point x="462" y="383"/>
      <point x="462" y="305" type="curve"/>
      <point x="462" y="204"/>
      <point x="462" y="102"/>
      <point x="462" y="0" type="curve"/>
      <point x="622" y="0"/>
      <point x="462" y="0"/>
      <point x="622" y="0" type="curve"/>
      <point x="622" y="106"/>
      <point x="622" y="211"/>
      <point x="622" y="317" type="curve"/>
      <point x="622" y="471"/>
      <point x="538" y="533"/>
      <point x="376" y="533" type="curve"/>
      <point x="238" y="533"/>
      <point x="125" y="481"/>
      <point x="71" y="356" type="curve"/>
    </contour>
    <contour>
      <point x="191" y="0"/>
      <point x="30" y="0"/>
      <point x="191" y="0" type="curve"/>
      <point x="191" y="178"/>
      <point x="191" y="355"/>
      <point x="191" y="533" type="curve"/>
      <point x="30" y="533"/>
      <point x="191" y="533"/>
      <point x="30" y="533" type="curve"/>
      <point x="30" y="355"/>
      <point x="30" y="178"/>
      <point x="30" y="0" type="curve"/>
    </contour>
  </outline>
</glyph>
<glyph name="n" format="1">
  <advance width="704"/>
  <unicode hex="006E"/>
  <outline>
    <contour>
      <point x="154" y="297"/>
      <point x="71" y="356"/>
      <point x="154" y="297" type="curve"/>
      <point x="194" y="375"/>
      <point x="280" y="416"/>
      <point x="369" y="416" type="curve"/>
      <point x="455" y="416"/>
      <point x="514" y="384"/>
      <point x="514" y="305" type="curve"/>
      <point x="514" y="204"/>
      <point x="514" y="102"/>
      <point x="514" y="0" type="curve"/>
      <point x="674" y="0"/>
      <point x="514" y="0"/>
      <point x="674" y="0" type="curve"/>
      <point x="674" y="106"/>
      <point x="674" y="211"/>
      <point x="674" y="317" type="curve"/>
      <point x="674" y="470"/>
      <point x="566" y="533"/>
      <point x="402" y="533" type="curve"/>
      <point x="263" y="533"/>
      <point x="123" y="480"/>
      <point x="71" y="356" type="curve"/>
    </contour>
    <contour>
      <point x="593" y="0"/>
      <point x="593" y="117"/>
      <point x="593" y="0" type="curve"/>
      <point x="593" y="0"/>
      <point x="593" y="0"/>
      <point x="593" y="0" type="curve"/>
      <point x="593" y="117"/>
      <point x="593" y="0"/>
      <point x="593" y="117" type="curve"/>
      <point x="593" y="117"/>
      <point x="593" y="117"/>
      <point x="593" y="117" type="curve"/>
    </contour>
    <contour>
      <point x="110" y="117"/>
      <point x="110" y="0"/>
      <point x="110" y="117" type="curve"/>
      <point x="110" y="117"/>
      <point x="110" y="117"/>
      <point x="110" y="117" type="curve"/>
      <point x="110" y="0"/>
      <point x="110" y="117"/>
      <point x="110" y="0" type="curve"/>
      <point x="110" y="0"/>
      <point x="110" y="0"/>
      <point x="110" y="0" type="curve"/>
    </contour>
    <contour>
      <point x="110" y="0"/>
      <point x="110" y="117"/>
      <point x="110" y="0" type="curve"/>
      <point x="110" y="0"/>
      <point x="110" y="0"/>
      <point x="110" y="0" type="curve"/>
      <point x="110" y="117"/>
      <point x="110" y="0"/>
      <point x="110" y="117" type="curve"/>
      <point x="110" y="117"/>
      <point x="110" y="117"/>
      <point x="110" y="117" type="curve"/>
    </contour>
    <contour>
      <point x="191" y="0"/>
      <point x="30" y="0"/>
      <point x="191" y="0" type="curve"/>
      <point x="191" y="178"/>
      <point x="191" y="355"/>
      <point x="191" y="533" type="curve"/>
      <point x="30" y="533"/>
      <point x="191" y="533"/>
      <point x="30" y="533" type="curve"/>
      <point x="30" y="355"/>
      <point x="30" y="178"/>
      <point x="30" y="0" type="curve"/>
    </contour>
    <contour>
      <point x="110" y="533"/>
      <point x="110" y="416"/>
      <point x="110" y="533" type="curve"/>
      <point x="110" y="533"/>
      <point x="110" y="533"/>
      <point x="110" y="533" type="curve"/>
      <point x="110" y="416"/>
      <point x="110" y="533"/>
      <point x="110" y="416" type="curve"/>
      <point x="110" y="416"/>
      <point x="110" y="416"/>
      <point x="110" y="416" type="curve"/>
    </contour>
    <contour>
      <point x="593" y="117"/>
      <point x="593" y="0"/>
      <point x="593" y="117" type="curve"/>
      <point x="593" y="117"/>
      <point x="593" y="117"/>
      <point x="593" y="117" type="curve"/>
      <point x="593" y="0"/>
      <point x="593" y="117"/>
      <point x="593" y="0" type="curve"/>
      <point x="593" y="0"/>
      <point x="593" y="0"/>
      <point x="593" y="0" type="curve"/>
    </contour>
  </outline>
</glyph>
<glyph name="r" format="1">
  <advance width="464"/>
  <unicode hex="0072"/>
  <outline>
    <contour>
      <point x="110" y="0"/>
      <point x="110" y="117"/>
      <point x="110" y="0" type="curve"/>
      <point x="110" y="0"/>
      <point x="110" y="0"/>
      <point x="110" y="0" type="curve"/>
      <point x="110" y="117"/>
      <point x="110" y="0"/>
      <point x="110" y="117" type="curve"/>
      <point x="110" y="117"/>
      <point x="110" y="117"/>
      <point x="110" y="117" type="curve"/>
    </contour>
    <contour>
      <point x="110" y="117"/>
      <point x="110" y="0"/>
      <point x="110" y="117" type="curve"/>
      <point x="110" y="117"/>
      <point x="110" y="117"/>
      <point x="110" y="117" type="curve"/>
      <point x="110" y="0"/>
      <point x="110" y="117"/>
      <point x="110" y="0" type="curve"/>
      <point x="110" y="0"/>
      <point x="110" y="0"/>
      <point x="110" y="0" type="curve"/>
    </contour>
    <contour>
      <point x="109" y="533"/>
      <point x="109" y="416"/>
      <point x="109" y="533" type="curve"/>
      <point x="109" y="533"/>
      <point x="109" y="533"/>
      <point x="109" y="533" type="curve"/>
      <point x="109" y="416"/>
      <point x="109" y="533"/>
      <point x="109" y="416" type="curve"/>
      <point x="109" y="416"/>
      <point x="109" y="416"/>
      <point x="109" y="416" type="curve"/>
    </contour>
    <contour>
      <point x="191" y="0"/>
      <point x="30" y="0"/>
      <point x="191" y="0" type="curve"/>
      <point x="191" y="178"/>
      <point x="191" y="355"/>
      <point x="191" y="533" type="curve"/>
      <point x="30" y="533"/>
      <point x="191" y="533"/>
      <point x="30" y="533" type="curve"/>
      <point x="30" y="355"/>
      <point x="30" y="178"/>
      <point x="30" y="0" type="curve"/>
    </contour>
    <contour>
      <point x="144" y="347"/>
      <point x="98" y="371"/>
      <point x="144" y="322" type="curve"/>
      <point x="220" y="406"/>
      <point x="321" y="416"/>
      <point x="434" y="416" type="curve"/>
      <point x="434" y="538"/>
      <point x="434" y="416"/>
      <point x="434" y="538" type="curve"/>
      <point x="296" y="538"/>
      <point x="184" y="503"/>
      <point x="98" y="396" type="curve"/>
    </contour>
  </outline>
</glyph>
<glyph name="t" format="1">
  <advance width="576"/>
  <unicode hex="0074"/>
  <outline>
    <contour>
      <point x="30" y="417"/>
      <point x="30" y="534"/>
      <point x="30" y="417" type="curve"/>
      <point x="30" y="417"/>
      <point x="538" y="417"/>
      <point x="538" y="417" type="curve"/>
      <point x="538" y="534"/>
      <point x="538" y="417"/>
      <point x="538" y="534" type="curve"/>
      <point x="538" y="534"/>
      <point x="30" y="534"/>
      <point x="30" y="534" type="curve"/>
    </contour>
    <contour>
      <point x="480" y="131"/>
      <point x="546" y="31"/>
      <point x="480" y="131" type="curve"/>
      <point x="447" y="118"/>
      <point x="421" y="116"/>
      <point x="386" y="116" type="curve"/>
      <point x="339" y="116"/>
      <point x="311" y="133"/>
      <point x="311" y="178" type="curve"/>
      <point x="311" y="178"/>
      <point x="311" y="651"/>
      <point x="311" y="651" type="curve"/>
      <point x="150" y="576"/>
      <point x="311" y="651"/>
      <point x="150" y="576" type="curve"/>
      <point x="150" y="576"/>
      <point x="150" y="172"/>
      <point x="150" y="172" type="curve"/>
      <point x="150" y="45"/>
      <point x="239" y="-6"/>
      <point x="371" y="-6" type="curve"/>
      <point x="437" y="-6"/>
      <point x="482" y="10"/>
      <point x="546" y="31" type="curve"/>
    </contour>
  </outline>
</glyph>
<glyph name="u" format="1">
  <advance width="696"/>
  <unicode hex="0075"/>
  <outline>
    <contour>
      <point x="585" y="533"/>
      <point x="585" y="416"/>
      <point x="585" y="533" type="curve"/>
      <point x="585" y="533"/>
      <point x="585" y="533"/>
      <point x="585" y="533" type="curve"/>
      <point x="585" y="416"/>
      <point x="585" y="533"/>
      <point x="585" y="416" type="curve"/>
      <point x="585" y="416"/>
      <point x="585" y="416"/>
      <point x="585" y="416" type="curve"/>
    </contour>
    <contour>
      <point x="110" y="533"/>
      <point x="110" y="416"/>
      <point x="110" y="533" type="curve"/>
      <point x="110" y="533"/>
      <point x="110" y="533"/>
      <point x="110" y="533" type="curve"/>
      <point x="110" y="416"/>
      <point x="110" y="533"/>
      <point x="110" y="416" type="curve"/>
      <point x="110" y="416"/>
      <point x="110" y="416"/>
      <point x="110" y="416" type="curve"/>
    </contour>
    <contour>
      <point x="585" y="0"/>
      <point x="585" y="117"/>
      <point x="585" y="0" type="curve"/>
      <point x="585" y="0"/>
      <point x="585" y="0"/>
      <point x="585" y="0" type="curve"/>
      <point x="585" y="117"/>
      <point x="585" y="0"/>
      <point x="585" y="117" type="curve"/>
      <point x="585" y="117"/>
      <point x="585" y="117"/>
      <point x="585" y="117" type="curve"/>
    </contour>
    <contour>
      <point x="665" y="0"/>
      <point x="505" y="0"/>
      <point x="665" y="0" type="curve"/>
      <point x="665" y="178"/>
      <point x="665" y="355"/>
      <point x="665" y="533" type="curve"/>
      <point x="505" y="533"/>
      <point x="665" y="533"/>
      <point x="505" y="533" type="curve"/>
      <point x="505" y="355"/>
      <point x="505" y="178"/>
      <point x="505" y="0" type="curve"/>
    </contour>
    <contour>
      <point x="531" y="218"/>
      <point x="636" y="165"/>
      <point x="531" y="218" type="curve"/>
      <point x="488" y="159"/>
      <point x="411" y="118"/>
      <point x="334" y="118" type="curve"/>
      <point x="249" y="118"/>
      <point x="191" y="145"/>
      <point x="191" y="222" type="curve"/>
      <point x="191" y="326"/>
      <point x="191" y="430"/>
      <point x="191" y="534" type="curve"/>
      <point x="30" y="534"/>
      <point x="191" y="534"/>
      <point x="30" y="534" type="curve"/>
      <point x="30" y="428"/>
      <point x="30" y="322"/>
      <point x="30" y="216" type="curve"/>
      <point x="30" y="57"/>
      <point x="149" y="1"/>
      <point x="323" y="1" type="curve"/>
      <point x="448" y="1"/>
      <point x="570" y="69"/>
      <point x="636" y="165" type="curve"/>
    </contour>
  </outline>
</glyph>
<glyph name="w" format="1">
  <advance width="1211"/>
  <unicode hex="0077"/>
  <outline>
    <contour>
      <point x="613" y="533"/>
      <point x="613" y="416"/>
      <point x="613" y="533" type="curve"/>
      <point x="613" y="533"/>
      <point x="613" y="533"/>
      <point x="613" y="533" type="curve"/>
      <point x="613" y="416"/>
      <point x="613" y="533"/>
      <point x="613" y="416" type="curve"/>
      <point x="613" y="416"/>
      <point x="613" y="416"/>
      <point x="613" y="416" type="curve"/>
    </contour>
    <contour>
      <point x="613" y="416"/>
      <point x="613" y="533"/>
      <point x="613" y="416" type="curve"/>
      <point x="613" y="416"/>
      <point x="613" y="416"/>
      <point x="613" y="416" type="curve"/>
      <point x="613" y="533"/>
      <point x="613" y="416"/>
      <point x="613" y="533" type="curve"/>
      <point x="613" y="533"/>
      <point x="613" y="533"/>
      <point x="613" y="533" type="curve"/>
    </contour>
    <contour>
      <point x="1083" y="416"/>
      <point x="1083" y="533"/>
      <point x="1083" y="416" type="curve"/>
      <point x="1083" y="416"/>
      <point x="1083" y="416"/>
      <point x="1083" y="416" type="curve"/>
      <point x="1083" y="533"/>
      <point x="1083" y="416"/>
      <point x="1083" y="533" type="curve"/>
      <point x="1083" y="533"/>
      <point x="1083" y="533"/>
      <point x="1083" y="533" type="curve"/>
    </contour>
    <contour>
      <point x="1083" y="533"/>
      <point x="1083" y="416"/>
      <point x="1083" y="533" type="curve"/>
      <point x="1083" y="533"/>
      <point x="1083" y="533"/>
      <point x="1083" y="533" type="curve"/>
      <point x="1083" y="416"/>
      <point x="1083" y="533"/>
      <point x="1083" y="416" type="curve"/>
      <point x="1083" y="416"/>
      <point x="1083" y="416"/>
      <point x="1083" y="416" type="curve"/>
    </contour>
    <contour>
      <point x="127" y="533"/>
      <point x="127" y="416"/>
      <point x="127" y="533" type="curve"/>
      <point x="127" y="533"/>
      <point x="127" y="533"/>
      <point x="127" y="533" type="curve"/>
      <point x="127" y="416"/>
      <point x="127" y="533"/>
      <point x="127" y="416" type="curve"/>
      <point x="127" y="416"/>
      <point x="127" y="416"/>
      <point x="127" y="416" type="curve"/>
    </contour>
    <contour>
      <point x="127" y="416"/>
      <point x="127" y="533"/>
      <point x="127" y="416" type="curve"/>
      <point x="127" y="416"/>
      <point x="127" y="416"/>
      <point x="127" y="416" type="curve"/>
      <point x="127" y="533"/>
      <point x="127" y="416"/>
      <point x="127" y="533" type="curve"/>
      <point x="127" y="533"/>
      <point x="127" y="533"/>
      <point x="127" y="533" type="curve"/>
    </contour>
    <contour>
      <point x="427" y="0"/>
      <point x="268" y="0"/>
      <point x="427" y="0" type="curve"/>
      <point x="515" y="178"/>
      <point x="603" y="355"/>
      <point x="691" y="533" type="curve"/>
      <point x="528" y="533"/>
      <point x="691" y="533"/>
      <point x="528" y="533" type="curve"/>
      <point x="441" y="355"/>
      <point x="354" y="178"/>
      <point x="268" y="0" type="curve"/>
    </contour>
    <contour>
      <point x="1018" y="533"/>
      <point x="1181" y="533"/>
      <point x="1018" y="533" type="curve"/>
      <point x="937" y="355"/>
      <point x="856" y="178"/>
      <point x="775" y="0" type="curve"/>
      <point x="934" y="0"/>
      <point x="775" y="0"/>
      <point x="934" y="0" type="curve"/>
      <point x="1016" y="178"/>
      <point x="1098" y="355"/>
      <point x="1181" y="533" type="curve"/>
    </contour>
    <contour>
      <point x="536" y="533"/>
      <point x="697" y="533"/>
      <point x="536" y="533" type="curve"/>
      <point x="615" y="355"/>
      <point x="694" y="178"/>
      <point x="773" y="0" type="curve"/>
      <point x="933" y="0"/>
      <point x="773" y="0"/>
      <point x="933" y="0" type="curve"/>
      <point x="854" y="178"/>
      <point x="776" y="355"/>
      <point x="697" y="533" type="curve"/>
    </contour>
    <contour>
      <point x="30" y="533"/>
      <point x="192" y="533"/>
      <point x="30" y="533" type="curve"/>
      <point x="109" y="355"/>
      <point x="187" y="178"/>
      <point x="266" y="0" type="curve"/>
      <point x="426" y="0"/>
      <point x="266" y="0"/>
      <point x="426" y="0" type="curve"/>
      <point x="348" y="178"/>
      <point x="270" y="355"/>
      <point x="192" y="533" type="curve"/>
    </contour>
  </outline>
</glyph>
<glyph name="y" format="1">
  <advance width="782"/>
  <unicode hex="0079"/>
  <outline>
    <contour>
      <point x="158" y="-183"/>
      <point x="158" y="-300"/>
      <point x="158" y="-183" type="curve"/>
      <point x="158" y="-183"/>
      <point x="158" y="-183"/>
      <point x="158" y="-183" type="curve"/>
      <point x="158" y="-300"/>
      <point x="158" y="-183"/>
      <point x="158" y="-300" type="curve"/>
      <point x="158" y="-300"/>
      <point x="158" y="-300"/>
      <point x="158" y="-300" type="curve"/>
    </contour>
    <contour>
      <point x="128" y="533"/>
      <point x="128" y="416"/>
      <point x="128" y="533" type="curve"/>
      <point x="128" y="533"/>
      <point x="128" y="533"/>
      <point x="128" y="533" type="curve"/>
      <point x="128" y="416"/>
      <point x="128" y="533"/>
      <point x="128" y="416" type="curve"/>
      <point x="128" y="416"/>
      <point x="128" y="416"/>
      <point x="128" y="416" type="curve"/>
    </contour>
    <contour>
      <point x="128" y="416"/>
      <point x="128" y="533"/>
      <point x="128" y="416" type="curve"/>
      <point x="128" y="416"/>
      <point x="128" y="416"/>
      <point x="128" y="416" type="curve"/>
      <point x="128" y="533"/>
      <point x="128" y="416"/>
      <point x="128" y="533" type="curve"/>
      <point x="128" y="533"/>
      <point x="128" y="533"/>
      <point x="128" y="533" type="curve"/>
    </contour>
    <contour>
      <point x="655" y="533"/>
      <point x="655" y="416"/>
      <point x="655" y="533" type="curve"/>
      <point x="655" y="533"/>
      <point x="655" y="533"/>
      <point x="655" y="533" type="curve"/>
      <point x="655" y="416"/>
      <point x="655" y="533"/>
      <point x="655" y="416" type="curve"/>
      <point x="655" y="416"/>
      <point x="655" y="416"/>
      <point x="655" y="416" type="curve"/>
    </contour>
    <contour>
      <point x="655" y="416"/>
      <point x="655" y="533"/>
      <point x="655" y="416" type="curve"/>
      <point x="655" y="416"/>
      <point x="655" y="416"/>
      <point x="655" y="416" type="curve"/>
      <point x="655" y="533"/>
      <point x="655" y="416"/>
      <point x="655" y="533" type="curve"/>
      <point x="655" y="533"/>
      <point x="655" y="533"/>
      <point x="655" y="533" type="curve"/>
    </contour>
    <contour>
      <point x="461" y="77"/>
      <point x="301" y="77"/>
      <point x="461" y="77" type="curve"/>
      <point x="372" y="229"/>
      <point x="283" y="381"/>
      <point x="194" y="533" type="curve"/>
      <point x="30" y="533"/>
      <point x="194" y="533"/>
      <point x="30" y="533" type="curve"/>
      <point x="120" y="381"/>
      <point x="211" y="229"/>
      <point x="301" y="77" type="curve"/>
    </contour>
    <contour>
      <point x="223" y="-300"/>
      <point x="60" y="-300"/>
      <point x="223" y="-300" type="curve"/>
      <point x="399" y="-22"/>
      <point x="575" y="255"/>
      <point x="751" y="533" type="curve"/>
      <point x="589" y="533"/>
      <point x="751" y="533"/>
      <point x="589" y="533" type="curve"/>
      <point x="412" y="255"/>
      <point x="236" y="-22"/>
      <point x="60" y="-300" type="curve"/>
    </contour>
  </outline>
</glyph>
<glyph name="adeva" format="1">
  <advance width="1103"/>
  <unicode hex="0905"/>
  <outline>
    <contour>
      <point x="849" y="452"/>
      <point x="900" y="358"/>
      <point x="849" y="452" type="curve"/>
      <point x="673" y="397"/>
      <point x="537" y="397"/>
      <point x="354" y="417" type="curve"/>
      <point x="318" y="347"/>
      <point x="354" y="417"/>
      <point x="318" y="347" type="curve"/>
      <point x="535" y="320"/>
      <point x="680" y="285"/>
      <point x="900" y="358" type="curve"/>
    </contour>
    <contour>
      <point x="170" y="561"/>
      <point x="75" y="660"/>
      <point x="170" y="561" type="curve"/>
      <point x="226" y="588"/>
      <point x="269" y="605"/>
      <point x="330" y="605" type="curve"/>
      <point x="410" y="605"/>
      <point x="480" y="589"/>
      <point x="479" y="520" type="curve"/>
      <point x="477" y="420"/>
      <point x="367" y="438"/>
      <point x="253" y="438" type="curve"/>
      <point x="253" y="333"/>
      <point x="253" y="438"/>
      <point x="253" y="333" type="curve"/>
      <point x="459" y="333"/>
      <point x="639" y="355"/>
      <point x="639" y="532" type="curve"/>
      <point x="640" y="673"/>
      <point x="510" y="722"/>
      <point x="352" y="722" type="curve"/>
      <point x="246" y="722"/>
      <point x="171" y="707"/>
      <point x="75" y="660" type="curve"/>
    </contour>
    <contour>
      <point x="153" y="123"/>
      <point x="30" y="123"/>
      <point x="153" y="123" type="curve"/>
      <point x="153" y="123"/>
      <point x="153" y="123"/>
      <point x="153" y="123" type="curve"/>
      <point x="30" y="123"/>
      <point x="153" y="123"/>
      <point x="30" y="123" type="curve"/>
      <point x="30" y="123"/>
      <point x="30" y="123"/>
      <point x="30" y="123" type="curve"/>
    </contour>
    <contour>
      <point x="33" y="123"/>
      <point x="142" y="199"/>
      <point x="33" y="123" type="curve"/>
      <point x="114" y="58"/>
      <point x="215" y="28"/>
      <point x="319" y="28" type="curve"/>
      <point x="518" y="22"/>
      <point x="684" y="69"/>
      <point x="680" y="241" type="curve"/>
      <point x="675" y="431"/>
      <point x="473" y="432"/>
      <point x="253" y="432" type="curve"/>
      <point x="253" y="332"/>
      <point x="253" y="432"/>
      <point x="253" y="332" type="curve"/>
      <point x="389" y="332"/>
      <point x="516" y="348"/>
      <point x="519" y="229" type="curve"/>
      <point x="521" y="146"/>
      <point x="433" y="142"/>
      <point x="334" y="144" type="curve"/>
      <point x="264" y="144"/>
      <point x="198" y="157"/>
      <point x="142" y="199" type="curve"/>
    </contour>
    <contour>
      <point x="879" y="0"/>
      <point x="879" y="117"/>
      <point x="879" y="0" type="curve"/>
      <point x="879" y="0"/>
      <point x="879" y="0"/>
      <point x="879" y="0" type="curve"/>
      <point x="879" y="117"/>
      <point x="879" y="0"/>
      <point x="879" y="117" type="curve"/>
      <point x="879" y="117"/>
      <point x="879" y="117"/>
      <point x="879" y="117" type="curve"/>
    </contour>
    <contour>
      <point x="879" y="117"/>
      <point x="879" y="0"/>
      <point x="879" y="117" type="curve"/>
      <point x="879" y="117"/>
      <point x="879" y="117"/>
      <point x="879" y="117" type="curve"/>
      <point x="879" y="0"/>
      <point x="879" y="117"/>
      <point x="879" y="0" type="curve"/>
      <point x="879" y="0"/>
      <point x="879" y="0"/>
      <point x="879" y="0" type="curve"/>
    </contour>
    <contour>
      <point x="958" y="0"/>
      <point x="797" y="0"/>
      <point x="958" y="0" type="curve"/>
      <point x="958" y="237"/>
      <point x="958" y="473"/>
      <point x="958" y="710" type="curve"/>
      <point x="797" y="710"/>
      <point x="958" y="710"/>
      <point x="797" y="710" type="curve"/>
      <point x="797" y="473"/>
      <point x="797" y="237"/>
      <point x="797" y="0" type="curve"/>
    </contour>
    <contour>
      <point x="680" y="598"/>
      <point x="680" y="727"/>
      <point x="680" y="598" type="curve"/>
      <point x="811" y="598"/>
      <point x="942" y="598"/>
      <point x="1074" y="598" type="curve"/>
      <point x="1074" y="727"/>
      <point x="1074" y="598"/>
      <point x="1074" y="727" type="curve"/>
      <point x="942" y="727"/>
      <point x="811" y="727"/>
      <point x="680" y="727" type="curve"/>
    </contour>
  </outline>
</glyph>
<glyph name="aadeva" format="1">
  <advance width="1445"/>
  <unicode hex="0906"/>
  <outline>
    <contour>
      <point x="153" y="123"/>
      <point x="30" y="123"/>
      <point x="153" y="123" type="curve"/>
      <point x="153" y="123"/>
      <point x="153" y="123"/>
      <point x="153" y="123" type="curve"/>
      <point x="30" y="123"/>
      <point x="153" y="123"/>
      <point x="30" y="123" type="curve"/>
      <point x="30" y="123"/>
      <point x="30" y="123"/>
      <point x="30" y="123" type="curve"/>
    </contour>
    <contour>
      <point x="849" y="449"/>
      <point x="900" y="362"/>
      <point x="849" y="449" type="curve"/>
      <point x="673" y="395"/>
      <point x="537" y="397"/>
      <point x="354" y="417" type="curve"/>
      <point x="318" y="347"/>
      <point x="354" y="417"/>
      <point x="318" y="347" type="curve"/>
      <point x="535" y="320"/>
      <point x="697" y="285"/>
      <point x="900" y="362" type="curve"/>
    </contour>
    <contour>
      <point x="33" y="123"/>
      <point x="142" y="199"/>
      <point x="33" y="123" type="curve"/>
      <point x="114" y="58"/>
      <point x="215" y="28"/>
      <point x="319" y="28" type="curve"/>
      <point x="518" y="22"/>
      <point x="684" y="66"/>
      <point x="680" y="238" type="curve"/>
      <point x="675" y="428"/>
      <point x="473" y="432"/>
      <point x="253" y="432" type="curve"/>
      <point x="253" y="332"/>
      <point x="253" y="432"/>
      <point x="253" y="332" type="curve"/>
      <point x="389" y="332"/>
      <point x="516" y="350"/>
      <point x="519" y="232" type="curve"/>
      <point x="521" y="148"/>
      <point x="433" y="142"/>
      <point x="334" y="144" type="curve"/>
      <point x="264" y="144"/>
      <point x="198" y="157"/>
      <point x="142" y="199" type="curve"/>
    </contour>
    <contour>
      <point x="170" y="561"/>
      <point x="75" y="660"/>
      <point x="170" y="561" type="curve"/>
      <point x="226" y="588"/>
      <point x="269" y="605"/>
      <point x="330" y="605" type="curve"/>
      <point x="410" y="605"/>
      <point x="480" y="589"/>
      <point x="479" y="520" type="curve"/>
      <point x="477" y="420"/>
      <point x="367" y="438"/>
      <point x="253" y="438" type="curve"/>
      <point x="253" y="333"/>
      <point x="253" y="438"/>
      <point x="253" y="333" type="curve"/>
      <point x="459" y="333"/>
      <point x="639" y="355"/>
      <point x="639" y="532" type="curve"/>
      <point x="640" y="673"/>
      <point x="510" y="722"/>
      <point x="352" y="722" type="curve"/>
      <point x="246" y="722"/>
      <point x="171" y="707"/>
      <point x="75" y="660" type="curve"/>
    </contour>
    <contour>
      <point x="1234" y="117"/>
      <point x="1234" y="0"/>
      <point x="1234" y="117" type="curve"/>
      <point x="1234" y="117"/>
      <point x="1234" y="117"/>
      <point x="1234" y="117" type="curve"/>
      <point x="1234" y="0"/>
      <point x="1234" y="117"/>
      <point x="1234" y="0" type="curve"/>
      <point x="1234" y="0"/>
      <point x="1234" y="0"/>
      <point x="1234" y="0" type="curve"/>
    </contour>
    <contour>
      <point x="1234" y="0"/>
      <point x="1234" y="117"/>
      <point x="1234" y="0" type="curve"/>
      <point x="1234" y="0"/>
      <point x="1234" y="0"/>
      <point x="1234" y="0" type="curve"/>
      <point x="1234" y="117"/>
      <point x="1234" y="0"/>
      <point x="1234" y="117" type="curve"/>
      <point x="1234" y="117"/>
      <point x="1234" y="117"/>
      <point x="1234" y="117" type="curve"/>
    </contour>
    <contour>
      <point x="879" y="117"/>
      <point x="879" y="0"/>
      <point x="879" y="117" type="curve"/>
      <point x="879" y="117"/>
      <point x="879" y="117"/>
      <point x="879" y="117" type="curve"/>
      <point x="879" y="0"/>
      <point x="879" y="117"/>
      <point x="879" y="0" type="curve"/>
      <point x="879" y="0"/>
      <point x="879" y="0"/>
      <point x="879" y="0" type="curve"/>
    </contour>
    <contour>
      <point x="879" y="0"/>
      <point x="879" y="117"/>
      <point x="879" y="0" type="curve"/>
      <point x="879" y="0"/>
      <point x="879" y="0"/>
      <point x="879" y="0" type="curve"/>
      <point x="879" y="117"/>
      <point x="879" y="0"/>
      <point x="879" y="117" type="curve"/>
      <point x="879" y="117"/>
      <point x="879" y="117"/>
      <point x="879" y="117" type="curve"/>
    </contour>
    <contour>
      <point x="1151" y="712"/>
      <point x="1311" y="712"/>
      <point x="1151" y="712" type="curve"/>
      <point x="1151" y="475"/>
      <point x="1151" y="237"/>
      <point x="1151" y="0" type="curve"/>
      <point x="1311" y="0"/>
      <point x="1151" y="0"/>
      <point x="1311" y="0" type="curve"/>
      <point x="1311" y="237"/>
      <point x="1311" y="475"/>
      <point x="1311" y="712" type="curve"/>
    </contour>
    <contour>
      <point x="1416" y="722"/>
      <point x="1416" y="605"/>
      <point x="1416" y="722" type="curve"/>
      <point x="1170" y="722"/>
      <point x="925" y="722"/>
      <point x="680" y="722" type="curve"/>
      <point x="680" y="605"/>
      <point x="680" y="722"/>
      <point x="680" y="605" type="curve"/>
      <point x="925" y="605"/>
      <point x="1170" y="605"/>
      <point x="1416" y="605" type="curve"/>
    </contour>
    <contour>
      <point x="797" y="712"/>
      <point x="958" y="712"/>
      <point x="797" y="712" type="curve"/>
      <point x="797" y="475"/>
      <point x="797" y="237"/>
      <point x="797" y="0" type="curve"/>
      <point x="958" y="0"/>
      <point x="797" y="0"/>
      <point x="958" y="0" type="curve"/>
      <point x="958" y="237"/>
      <point x="958" y="475"/>
      <point x="958" y="712" type="curve"/>
    </contour>
  </outline>
</glyph>
<glyph name="ddhadeva" format="1">
  <advance width="915"/>
  <unicode hex="0922"/>
  <outline>
    <contour>
      <point x="30" y="605"/>
      <point x="30" y="722"/>
      <point x="30" y="605" type="curve"/>
      <point x="315" y="605"/>
      <point x="599" y="605"/>
      <point x="884" y="605" type="curve"/>
      <point x="884" y="722"/>
      <point x="884" y="605"/>
      <point x="884" y="722" type="curve"/>
      <point x="599" y="722"/>
      <point x="315" y="722"/>
      <point x="30" y="722" type="curve"/>
    </contour>
    <contour>
      <point x="569" y="663"/>
      <point x="729" y="663"/>
      <point x="569" y="663" type="curve"/>
      <point x="569" y="609"/>
      <point x="569" y="556"/>
      <point x="569" y="502" type="curve"/>
      <point x="584" y="511"/>
      <point x="596" y="523"/>
      <point x="612" y="532" type="curve"/>
      <point x="629" y="543"/>
      <point x="644" y="557"/>
      <point x="662" y="569" type="curve"/>
      <point x="614" y="569"/>
      <point x="566" y="569"/>
      <point x="518" y="569" type="curve"/>
      <point x="273" y="569"/>
      <point x="64" y="499"/>
      <point x="64" y="284" type="curve"/>
      <point x="64" y="80"/>
      <point x="252" y="0"/>
      <point x="478" y="0" type="curve"/>
      <point x="677" y="0"/>
      <point x="859" y="28"/>
      <point x="859" y="197" type="curve"/>
      <point x="859" y="323"/>
      <point x="747" y="372"/>
      <point x="608" y="372" type="curve"/>
      <point x="467" y="372"/>
      <point x="353" y="324"/>
      <point x="353" y="197" type="curve"/>
      <point x="353" y="95"/>
      <point x="448" y="55"/>
      <point x="552" y="23" type="curve"/>
      <point x="610" y="99"/>
      <point x="552" y="23"/>
      <point x="610" y="99" type="curve"/>
      <point x="557" y="120"/>
      <point x="513" y="143"/>
      <point x="513" y="197" type="curve"/>
      <point x="513" y="237"/>
      <point x="554" y="243"/>
      <point x="600" y="243" type="curve"/>
      <point x="652" y="243"/>
      <point x="699" y="242"/>
      <point x="699" y="197" type="curve"/>
      <point x="699" y="106"/>
      <point x="591" y="117"/>
      <point x="485" y="117" type="curve"/>
      <point x="342" y="117"/>
      <point x="225" y="172"/>
      <point x="225" y="301" type="curve"/>
      <point x="225" y="432"/>
      <point x="365" y="452"/>
      <point x="518" y="452" type="curve"/>
      <point x="566" y="452"/>
      <point x="614" y="452"/>
      <point x="662" y="452" type="curve"/>
      <point x="729" y="452"/>
      <point x="662" y="452"/>
      <point x="729" y="452" type="curve"/>
      <point x="729" y="502"/>
      <point x="729" y="452"/>
      <point x="729" y="502" type="curve"/>
      <point x="729" y="556"/>
      <point x="729" y="609"/>
      <point x="729" y="663" type="curve"/>
    </contour>
  </outline>
</glyph>
<glyph name="thadeva" format="1">
  <advance width="947"/>
  <unicode hex="0925"/>
  <outline>
    <contour>
      <point x="722" y="0"/>
      <point x="722" y="117"/>
      <point x="722" y="0" type="curve"/>
      <point x="722" y="0"/>
      <point x="722" y="0"/>
      <point x="722" y="0" type="curve"/>
      <point x="722" y="117"/>
      <point x="722" y="0"/>
      <point x="722" y="117" type="curve"/>
      <point x="722" y="117"/>
      <point x="722" y="117"/>
      <point x="722" y="117" type="curve"/>
    </contour>
    <contour>
      <point x="722" y="117"/>
      <point x="722" y="0"/>
      <point x="722" y="117" type="curve"/>
      <point x="722" y="117"/>
      <point x="722" y="117"/>
      <point x="722" y="117" type="curve"/>
      <point x="722" y="0"/>
      <point x="722" y="117"/>
      <point x="722" y="0" type="curve"/>
      <point x="722" y="0"/>
      <point x="722" y="0"/>
      <point x="722" y="0" type="curve"/>
    </contour>
    <contour>
      <point x="707" y="605"/>
      <point x="707" y="722"/>
      <point x="707" y="605" type="curve"/>
      <point x="777" y="605"/>
      <point x="847" y="605"/>
      <point x="917" y="605" type="curve"/>
      <point x="917" y="722"/>
      <point x="917" y="605"/>
      <point x="917" y="722" type="curve"/>
      <point x="847" y="722"/>
      <point x="777" y="722"/>
      <point x="707" y="722" type="curve"/>
    </contour>
    <contour>
      <point x="801" y="0"/>
      <point x="641" y="0"/>
      <point x="801" y="0" type="curve"/>
      <point x="801" y="241"/>
      <point x="801" y="481"/>
      <point x="801" y="722" type="curve"/>
      <point x="641" y="722"/>
      <point x="801" y="722"/>
      <point x="641" y="722" type="curve"/>
      <point x="641" y="481"/>
      <point x="641" y="241"/>
      <point x="641" y="0" type="curve"/>
    </contour>
    <contour>
      <point x="246" y="550"/>
      <point x="170" y="464"/>
      <point x="246" y="552" type="curve"/>
      <point x="238" y="558"/>
      <point x="231" y="565"/>
      <point x="231" y="575" type="curve"/>
      <point x="231" y="601"/>
      <point x="258" y="605"/>
      <point x="288" y="605" type="curve"/>
      <point x="332" y="605"/>
      <point x="369" y="589"/>
      <point x="370" y="550" type="curve"/>
      <point x="371" y="435"/>
      <point x="234" y="433"/>
      <point x="102" y="433" type="curve"/>
      <point x="30" y="433"/>
      <point x="102" y="433"/>
      <point x="30" y="433" type="curve"/>
      <point x="30" y="370"/>
      <point x="30" y="452"/>
      <point x="30" y="389" type="curve"/>
      <point x="30" y="211"/>
      <point x="197" y="130"/>
      <point x="393" y="130" type="curve"/>
      <point x="546" y="130"/>
      <point x="671" y="169"/>
      <point x="768" y="286" type="curve"/>
      <point x="663" y="328"/>
      <point x="768" y="286"/>
      <point x="663" y="328" type="curve"/>
      <point x="597" y="257"/>
      <point x="513" y="246"/>
      <point x="415" y="247" type="curve"/>
      <point x="292" y="248"/>
      <point x="183" y="283"/>
      <point x="183" y="389" type="curve"/>
      <point x="170" y="377"/>
      <point x="166" y="357"/>
      <point x="153" y="344" type="curve"/>
      <point x="138" y="333"/>
      <point x="118" y="329"/>
      <point x="102" y="318" type="curve"/>
      <point x="318" y="318"/>
      <point x="516" y="363"/>
      <point x="516" y="550" type="curve"/>
      <point x="515" y="664"/>
      <point x="417" y="722"/>
      <point x="295" y="722" type="curve"/>
      <point x="174" y="722"/>
      <point x="68" y="683"/>
      <point x="66" y="572" type="curve"/>
      <point x="66" y="504"/>
      <point x="117" y="478"/>
      <point x="169" y="463" type="curve"/>
    </contour>
  </outline>
</glyph>
<glyph name="dhadeva" format="1">
  <advance width="923"/>
  <unicode hex="0927"/>
  <outline>
    <contour>
      <point x="711" y="0"/>
      <point x="711" y="117"/>
      <point x="711" y="0" type="curve"/>
      <point x="711" y="0"/>
      <point x="711" y="0"/>
      <point x="711" y="0" type="curve"/>
      <point x="711" y="117"/>
      <point x="711" y="0"/>
      <point x="711" y="117" type="curve"/>
      <point x="711" y="117"/>
      <point x="711" y="117"/>
      <point x="711" y="117" type="curve"/>
    </contour>
    <contour>
      <point x="711" y="117"/>
      <point x="711" y="0"/>
      <point x="711" y="117" type="curve"/>
      <point x="711" y="117"/>
      <point x="711" y="117"/>
      <point x="711" y="117" type="curve"/>
      <point x="711" y="0"/>
      <point x="711" y="117"/>
      <point x="711" y="0" type="curve"/>
      <point x="711" y="0"/>
      <point x="711" y="0"/>
      <point x="711" y="0" type="curve"/>
    </contour>
    <contour>
      <point x="893" y="722"/>
      <point x="893" y="605"/>
      <point x="893" y="722" type="curve"/>
      <point x="827" y="722"/>
      <point x="762" y="722"/>
      <point x="697" y="722" type="curve"/>
      <point x="697" y="605"/>
      <point x="697" y="722"/>
      <point x="697" y="605" type="curve"/>
      <point x="762" y="605"/>
      <point x="827" y="605"/>
      <point x="893" y="605" type="curve"/>
    </contour>
    <contour>
      <point x="653" y="325"/>
      <point x="769" y="272"/>
      <point x="653" y="325" type="curve"/>
      <point x="593" y="233"/>
      <point x="506" y="213"/>
      <point x="396" y="213" type="curve"/>
      <point x="290" y="213"/>
      <point x="190" y="207"/>
      <point x="191" y="298" type="curve"/>
      <point x="192" y="405"/>
      <point x="312" y="378"/>
      <point x="433" y="378" type="curve"/>
      <point x="433" y="477"/>
      <point x="433" y="378"/>
      <point x="433" y="477" type="curve"/>
      <point x="222" y="477"/>
      <point x="30" y="468"/>
      <point x="30" y="286" type="curve"/>
      <point x="30" y="124"/>
      <point x="193" y="97"/>
      <point x="381" y="97" type="curve"/>
      <point x="549" y="97"/>
      <point x="682" y="131"/>
      <point x="769" y="272" type="curve"/>
    </contour>
    <contour>
      <point x="791" y="0"/>
      <point x="631" y="0"/>
      <point x="791" y="0" type="curve"/>
      <point x="791" y="237"/>
      <point x="791" y="485"/>
      <point x="791" y="722" type="curve"/>
      <point x="631" y="722"/>
      <point x="791" y="722"/>
      <point x="631" y="722" type="curve"/>
      <point x="631" y="485"/>
      <point x="631" y="237"/>
      <point x="631" y="0" type="curve"/>
    </contour>
    <contour>
      <point x="475" y="485"/>
      <point x="373" y="555"/>
      <point x="475" y="485" type="curve"/>
      <point x="510" y="510"/>
      <point x="529" y="539"/>
      <point x="529" y="582" type="curve"/>
      <point x="529" y="690"/>
      <point x="427" y="722"/>
      <point x="305" y="722" type="curve"/>
      <point x="161" y="722"/>
      <point x="46" y="679"/>
      <point x="46" y="552" type="curve"/>
      <point x="45" y="377"/>
      <point x="230" y="378"/>
      <point x="433" y="378" type="curve"/>
      <point x="433" y="477"/>
      <point x="433" y="378"/>
      <point x="433" y="477" type="curve"/>
      <point x="317" y="477"/>
      <point x="205" y="457"/>
      <point x="206" y="558" type="curve"/>
      <point x="207" y="597"/>
      <point x="245" y="605"/>
      <point x="290" y="605" type="curve"/>
      <point x="337" y="605"/>
      <point x="383" y="612"/>
      <point x="383" y="571" type="curve"/>
      <point x="383" y="563"/>
      <point x="378" y="560"/>
      <point x="373" y="555" type="curve"/>
    </contour>
  </outline>
</glyph>
<glyph name="bhadeva" format="1">
  <advance width="1059"/>
  <unicode hex="092D"/>
  <outline>
    <contour>
      <point x="835" y="117"/>
      <point x="835" y="0"/>
      <point x="835" y="117" type="curve"/>
      <point x="835" y="117"/>
      <point x="835" y="117"/>
      <point x="835" y="117" type="curve"/>
      <point x="835" y="0"/>
      <point x="835" y="117"/>
      <point x="835" y="0" type="curve"/>
      <point x="835" y="0"/>
      <point x="835" y="0"/>
      <point x="835" y="0" type="curve"/>
    </contour>
    <contour>
      <point x="835" y="0"/>
      <point x="835" y="117"/>
      <point x="835" y="0" type="curve"/>
      <point x="835" y="0"/>
      <point x="835" y="0"/>
      <point x="835" y="0" type="curve"/>
      <point x="835" y="117"/>
      <point x="835" y="0"/>
      <point x="835" y="117" type="curve"/>
      <point x="835" y="117"/>
      <point x="835" y="117"/>
      <point x="835" y="117" type="curve"/>
    </contour>
    <contour>
      <point x="913" y="0"/>
      <point x="752" y="0"/>
      <point x="913" y="0" type="curve"/>
      <point x="913" y="237"/>
      <point x="913" y="473"/>
      <point x="913" y="710" type="curve"/>
      <point x="752" y="710"/>
      <point x="913" y="710"/>
      <point x="752" y="710" type="curve"/>
      <point x="752" y="473"/>
      <point x="752" y="237"/>
      <point x="752" y="0" type="curve"/>
    </contour>
    <contour>
      <point x="622" y="605"/>
      <point x="622" y="722"/>
      <point x="622" y="605" type="curve"/>
      <point x="757" y="605"/>
      <point x="893" y="605"/>
      <point x="1029" y="605" type="curve"/>
      <point x="1029" y="722"/>
      <point x="1029" y="605"/>
      <point x="1029" y="722" type="curve"/>
      <point x="893" y="722"/>
      <point x="757" y="722"/>
      <point x="622" y="722" type="curve"/>
    </contour>
    <contour>
      <point x="192" y="537"/>
      <point x="105" y="461"/>
      <point x="192" y="537" type="curve"/>
      <point x="181" y="545"/>
      <point x="176" y="559"/>
      <point x="176" y="576" type="curve"/>
      <point x="177" y="611"/>
      <point x="214" y="605"/>
      <point x="253" y="605" type="curve"/>
      <point x="303" y="605"/>
      <point x="339" y="602"/>
      <point x="339" y="560" type="curve"/>
      <point x="339" y="478"/>
      <point x="339" y="396"/>
      <point x="339" y="314" type="curve"/>
      <point x="339" y="314"/>
      <point x="404" y="356"/>
      <point x="404" y="356" type="curve"/>
      <point x="404" y="356"/>
      <point x="455" y="317"/>
      <point x="455" y="317" type="curve"/>
      <point x="455" y="317"/>
      <point x="405" y="260"/>
      <point x="405" y="260" type="curve"/>
      <point x="549" y="260"/>
      <point x="693" y="260"/>
      <point x="838" y="260" type="curve"/>
      <point x="838" y="377"/>
      <point x="838" y="260"/>
      <point x="838" y="377" type="curve"/>
      <point x="691" y="377"/>
      <point x="544" y="377"/>
      <point x="398" y="377" type="curve"/>
      <point x="314" y="377"/>
      <point x="277" y="339"/>
      <point x="277" y="302" type="curve"/>
      <point x="277" y="254"/>
      <point x="312" y="229"/>
      <point x="396" y="229" type="curve"/>
      <point x="460" y="229"/>
      <point x="485" y="255"/>
      <point x="485" y="314" type="curve"/>
      <point x="485" y="396"/>
      <point x="485" y="478"/>
      <point x="485" y="560" type="curve"/>
      <point x="485" y="683"/>
      <point x="397" y="722"/>
      <point x="261" y="722" type="curve"/>
      <point x="134" y="722"/>
      <point x="32" y="683"/>
      <point x="30" y="570" type="curve"/>
      <point x="30" y="516"/>
      <point x="65" y="486"/>
      <point x="105" y="461" type="curve"/>
    </contour>
  </outline>
</glyph>
<glyph name="uni0922094D0922094D092F" format="1">
  <advance width="1711"/>
  <unicode hex="E003"/>
  <outline>
    <contour>
      <point x="543" y="663"/>
      <point x="703" y="663"/>
      <point x="543" y="663" type="curve"/>
      <point x="543" y="607"/>
      <point x="543" y="551"/>
      <point x="543" y="495" type="curve"/>
      <point x="558" y="506"/>
      <point x="566" y="524"/>
      <point x="581" y="535" type="curve"/>
      <point x="596" y="546"/>
      <point x="615" y="550"/>
      <point x="631" y="562" type="curve"/>
      <point x="579" y="562"/>
      <point x="528" y="562"/>
      <point x="477" y="562" type="curve"/>
      <point x="274" y="562"/>
      <point x="103" y="544"/>
      <point x="103" y="370" type="curve"/>
      <point x="103" y="174"/>
      <point x="283" y="172"/>
      <point x="513" y="172" type="curve"/>
      <point x="661" y="172"/>
      <point x="787" y="177"/>
      <point x="787" y="304" type="curve"/>
      <point x="787" y="396"/>
      <point x="711" y="425"/>
      <point x="610" y="425" type="curve"/>
      <point x="506" y="425"/>
      <point x="429" y="394"/>
      <point x="429" y="300" type="curve"/>
      <point x="429" y="212"/>
      <point x="505" y="197"/>
      <point x="604" y="192" type="curve"/>
      <point x="618" y="256"/>
      <point x="604" y="192"/>
      <point x="618" y="256" type="curve"/>
      <point x="576" y="265"/>
      <point x="541" y="261"/>
      <point x="541" y="301" type="curve"/>
      <point x="541" y="332"/>
      <point x="574" y="333"/>
      <point x="609" y="333" type="curve"/>
      <point x="643" y="333"/>
      <point x="674" y="329"/>
      <point x="674" y="300" type="curve"/>
      <point x="674" y="249"/>
      <point x="599" y="271"/>
      <point x="527" y="271" type="curve"/>
      <point x="384" y="271"/>
      <point x="264" y="277"/>
      <point x="264" y="370" type="curve"/>
      <point x="264" y="443"/>
      <point x="368" y="439"/>
      <point x="477" y="439" type="curve"/>
      <point x="528" y="439"/>
      <point x="579" y="439"/>
      <point x="631" y="439" type="curve"/>
      <point x="703" y="439"/>
      <point x="631" y="439"/>
      <point x="703" y="439" type="curve"/>
      <point x="703" y="495"/>
      <point x="703" y="439"/>
      <point x="703" y="495" type="curve"/>
      <point x="703" y="551"/>
      <point x="703" y="607"/>
      <point x="703" y="663" type="curve"/>
    </contour>
    <contour>
      <point x="528" y="225"/>
      <point x="689" y="225"/>
      <point x="528" y="225" type="curve"/>
      <point x="528" y="174"/>
      <point x="528" y="122"/>
      <point x="528" y="71" type="curve"/>
      <point x="543" y="81"/>
      <point x="552" y="98"/>
      <point x="567" y="108" type="curve"/>
      <point x="583" y="119"/>
      <point x="601" y="127"/>
      <point x="618" y="138" type="curve"/>
      <point x="566" y="138"/>
      <point x="515" y="138"/>
      <point x="464" y="138" type="curve"/>
      <point x="258" y="138"/>
      <point x="103" y="113"/>
      <point x="103" y="-63" type="curve"/>
      <point x="103" y="-260"/>
      <point x="282" y="-267"/>
      <point x="513" y="-267" type="curve"/>
      <point x="661" y="-267"/>
      <point x="786" y="-262"/>
      <point x="786" y="-135" type="curve"/>
      <point x="786" y="-44"/>
      <point x="715" y="-12"/>
      <point x="615" y="-12" type="curve"/>
      <point x="512" y="-12"/>
      <point x="440" y="-45"/>
      <point x="440" y="-139" type="curve"/>
      <point x="440" y="-220"/>
      <point x="523" y="-240"/>
      <point x="601" y="-242" type="curve"/>
      <point x="623" y="-190"/>
      <point x="601" y="-242"/>
      <point x="623" y="-190" type="curve"/>
      <point x="583" y="-181"/>
      <point x="547" y="-174"/>
      <point x="547" y="-135" type="curve"/>
      <point x="547" y="-107"/>
      <point x="576" y="-104"/>
      <point x="608" y="-104" type="curve"/>
      <point x="643" y="-104"/>
      <point x="673" y="-109"/>
      <point x="673" y="-139" type="curve"/>
      <point x="673" y="-189"/>
      <point x="599" y="-173"/>
      <point x="527" y="-173" type="curve"/>
      <point x="382" y="-173"/>
      <point x="264" y="-156"/>
      <point x="264" y="-63" type="curve"/>
      <point x="264" y="7"/>
      <point x="354" y="16"/>
      <point x="464" y="16" type="curve"/>
      <point x="515" y="16"/>
      <point x="566" y="16"/>
      <point x="618" y="16" type="curve"/>
      <point x="689" y="16"/>
      <point x="618" y="16"/>
      <point x="689" y="16" type="curve"/>
      <point x="689" y="71"/>
      <point x="689" y="16"/>
      <point x="689" y="71" type="curve"/>
      <point x="689" y="122"/>
      <point x="689" y="174"/>
      <point x="689" y="225" type="curve"/>
    </contour>
    <contour>
      <point x="1463" y="0"/>
      <point x="1463" y="117"/>
      <point x="1463" y="0" type="curve"/>
      <point x="1463" y="0"/>
      <point x="1463" y="0"/>
      <point x="1463" y="0" type="curve"/>
      <point x="1463" y="117"/>
      <point x="1463" y="0"/>
      <point x="1463" y="117" type="curve"/>
      <point x="1463" y="117"/>
      <point x="1463" y="117"/>
      <point x="1463" y="117" type="curve"/>
    </contour>
    <contour>
      <point x="30" y="605"/>
      <point x="30" y="722"/>
      <point x="30" y="605" type="curve"/>
      <point x="580" y="605"/>
      <point x="1131" y="605"/>
      <point x="1681" y="605" type="curve"/>
      <point x="1681" y="722"/>
      <point x="1681" y="605"/>
      <point x="1681" y="722" type="curve"/>
      <point x="1131" y="722"/>
      <point x="580" y="722"/>
      <point x="30" y="722" type="curve"/>
    </contour>
    <contour>
      <point x="1543" y="0"/>
      <point x="1382" y="0"/>
      <point x="1543" y="0" type="curve"/>
      <point x="1543" y="237"/>
      <point x="1543" y="473"/>
      <point x="1543" y="710" type="curve"/>
      <point x="1382" y="710"/>
      <point x="1543" y="710"/>
      <point x="1382" y="710" type="curve"/>
      <point x="1382" y="473"/>
      <point x="1382" y="237"/>
      <point x="1382" y="0" type="curve"/>
    </contour>
    <contour>
      <point x="573" y="439"/>
      <point x="573" y="562"/>
      <point x="573" y="439" type="curve"/>
      <point x="709" y="439"/>
      <point x="801" y="439"/>
      <point x="936" y="439" type="curve"/>
      <point x="1021" y="439"/>
      <point x="1112" y="446"/>
      <point x="1112" y="411" type="curve"/>
      <point x="1112" y="377"/>
      <point x="1024" y="386"/>
      <point x="943" y="386" type="curve"/>
      <point x="871" y="386"/>
      <point x="943" y="386"/>
      <point x="871" y="386" type="curve"/>
      <point x="871" y="328"/>
      <point x="871" y="386"/>
      <point x="871" y="328" type="curve"/>
      <point x="873" y="146"/>
      <point x="1022" y="73"/>
      <point x="1223" y="73" type="curve"/>
      <point x="1358" y="73"/>
      <point x="1446" y="110"/>
      <point x="1522" y="220" type="curve"/>
      <point x="1405" y="272"/>
      <point x="1522" y="220"/>
      <point x="1405" y="272" type="curve"/>
      <point x="1359" y="208"/>
      <point x="1304" y="202"/>
      <point x="1223" y="202" type="curve"/>
      <point x="1114" y="202"/>
      <point x="1032" y="238"/>
      <point x="1032" y="334" type="curve"/>
      <point x="1017" y="324"/>
      <point x="1008" y="307"/>
      <point x="993" y="297" type="curve"/>
      <point x="977" y="284"/>
      <point x="959" y="275"/>
      <point x="943" y="263" type="curve"/>
      <point x="1121" y="263"/>
      <point x="1273" y="263"/>
      <point x="1273" y="417" type="curve"/>
      <point x="1273" y="571"/>
      <point x="1115" y="562"/>
      <point x="936" y="562" type="curve"/>
      <point x="801" y="562"/>
      <point x="709" y="562"/>
      <point x="573" y="562" type="curve"/>
    </contour>
  </outline>
</glyph>
